<mxfile host="Electron" agent="Mozilla/5.0 (Windows NT 10.0; Win64; x64) AppleWebKit/537.36 (KHTML, like Gecko) draw.io/24.7.8 Chrome/128.0.6613.36 Electron/32.0.1 Safari/537.36" version="24.7.8" pages="3">
  <diagram name="Improvement 2 - ECS" id="v__J2vl9J4nB-cAkihD5">
    <mxGraphModel dx="2183" dy="1309" grid="1" gridSize="10" guides="1" tooltips="1" connect="1" arrows="1" fold="1" page="1" pageScale="1" pageWidth="1169" pageHeight="827" math="0" shadow="0">
      <root>
        <mxCell id="ZYmCYi-xUUNIlI-mYGhi-0" />
        <mxCell id="ZYmCYi-xUUNIlI-mYGhi-1" parent="ZYmCYi-xUUNIlI-mYGhi-0" />
        <mxCell id="ZYmCYi-xUUNIlI-mYGhi-3" value="" style="edgeStyle=orthogonalEdgeStyle;rounded=0;orthogonalLoop=1;jettySize=auto;html=1;" edge="1" parent="ZYmCYi-xUUNIlI-mYGhi-1" source="ZYmCYi-xUUNIlI-mYGhi-43" target="ZYmCYi-xUUNIlI-mYGhi-36">
          <mxGeometry relative="1" as="geometry">
            <mxPoint x="900" y="357.8000000000002" as="sourcePoint" />
            <mxPoint x="970" y="630" as="targetPoint" />
          </mxGeometry>
        </mxCell>
        <mxCell id="ZYmCYi-xUUNIlI-mYGhi-4" value="AWS Cloud" style="points=[[0,0],[0.25,0],[0.5,0],[0.75,0],[1,0],[1,0.25],[1,0.5],[1,0.75],[1,1],[0.75,1],[0.5,1],[0.25,1],[0,1],[0,0.75],[0,0.5],[0,0.25]];outlineConnect=0;gradientColor=none;fontSize=12;fontStyle=0;container=1;pointerEvents=0;collapsible=0;recursiveResize=0;shape=mxgraph.aws4.group;grIcon=mxgraph.aws4.group_aws_cloud_alt;strokeColor=#232F3E;fillColor=none;verticalAlign=top;align=left;spacingLeft=30;fontColor=#232F3E;dashed=0;html=1;whiteSpace=wrap;" vertex="1" parent="ZYmCYi-xUUNIlI-mYGhi-1">
          <mxGeometry x="400" y="401" width="1640" height="999" as="geometry" />
        </mxCell>
        <mxCell id="ZYmCYi-xUUNIlI-mYGhi-31" value="&lt;span style=&quot;color: rgb(22, 25, 31); font-family: &amp;quot;Amazon Ember&amp;quot;, Helvetica, Arial, sans-serif; background-color: rgb(255, 255, 255);&quot;&gt;&lt;font style=&quot;font-size: 12px;&quot;&gt;Asia Pacific (Singapore)&lt;/font&gt;&lt;/span&gt;" style="points=[[0,0],[0.25,0],[0.5,0],[0.75,0],[1,0],[1,0.25],[1,0.5],[1,0.75],[1,1],[0.75,1],[0.5,1],[0.25,1],[0,1],[0,0.75],[0,0.5],[0,0.25]];outlineConnect=0;gradientColor=none;html=1;whiteSpace=wrap;fontSize=12;fontStyle=0;container=1;pointerEvents=0;collapsible=0;recursiveResize=0;shape=mxgraph.aws4.group;grIcon=mxgraph.aws4.group_region;strokeColor=#00A4A6;fillColor=none;verticalAlign=top;align=left;spacingLeft=30;fontColor=#147EBA;dashed=1;" vertex="1" parent="ZYmCYi-xUUNIlI-mYGhi-4">
          <mxGeometry x="40" y="40" width="1560" height="920" as="geometry" />
        </mxCell>
        <mxCell id="2whNc9zPOyyK-Mm6IZwf-65" value="&amp;nbsp;AWS PrivateLink&amp;nbsp;&lt;br&gt;VPC Endpoint&amp;nbsp;" style="sketch=0;outlineConnect=0;fontColor=#232F3E;gradientColor=none;fillColor=#8C4FFF;strokeColor=none;dashed=0;verticalLabelPosition=bottom;verticalAlign=top;align=center;html=1;fontSize=12;fontStyle=0;aspect=fixed;pointerEvents=1;shape=mxgraph.aws4.endpoints;labelBackgroundColor=default;labelBorderColor=#0000FF;" vertex="1" parent="ZYmCYi-xUUNIlI-mYGhi-31">
          <mxGeometry x="1370" y="569" width="60" height="60" as="geometry" />
        </mxCell>
        <mxCell id="2whNc9zPOyyK-Mm6IZwf-73" value="&amp;nbsp;ECR&amp;nbsp;" style="sketch=0;points=[[0,0,0],[0.25,0,0],[0.5,0,0],[0.75,0,0],[1,0,0],[0,1,0],[0.25,1,0],[0.5,1,0],[0.75,1,0],[1,1,0],[0,0.25,0],[0,0.5,0],[0,0.75,0],[1,0.25,0],[1,0.5,0],[1,0.75,0]];outlineConnect=0;fontColor=#232F3E;fillColor=#ED7100;strokeColor=#ffffff;dashed=0;verticalLabelPosition=bottom;verticalAlign=top;align=center;html=1;fontSize=12;fontStyle=0;aspect=fixed;shape=mxgraph.aws4.resourceIcon;resIcon=mxgraph.aws4.ecr;labelBackgroundColor=default;labelBorderColor=#FF8000;" vertex="1" parent="ZYmCYi-xUUNIlI-mYGhi-31">
          <mxGeometry x="1480" y="569" width="60" height="60" as="geometry" />
        </mxCell>
        <mxCell id="2whNc9zPOyyK-Mm6IZwf-76" style="edgeStyle=orthogonalEdgeStyle;rounded=0;orthogonalLoop=1;jettySize=auto;html=1;entryX=0;entryY=0.5;entryDx=0;entryDy=0;entryPerimeter=0;" edge="1" parent="ZYmCYi-xUUNIlI-mYGhi-31" source="2whNc9zPOyyK-Mm6IZwf-65" target="2whNc9zPOyyK-Mm6IZwf-73">
          <mxGeometry relative="1" as="geometry" />
        </mxCell>
        <mxCell id="ZYmCYi-xUUNIlI-mYGhi-32" value="VPC 10.0.0.0/16" style="points=[[0,0],[0.25,0],[0.5,0],[0.75,0],[1,0],[1,0.25],[1,0.5],[1,0.75],[1,1],[0.75,1],[0.5,1],[0.25,1],[0,1],[0,0.75],[0,0.5],[0,0.25]];outlineConnect=0;gradientColor=none;html=1;whiteSpace=wrap;fontSize=12;fontStyle=0;container=1;pointerEvents=0;collapsible=0;recursiveResize=0;shape=mxgraph.aws4.group;grIcon=mxgraph.aws4.group_vpc2;strokeColor=#8C4FFF;fillColor=none;verticalAlign=top;align=left;spacingLeft=30;fontColor=#AAB7B8;dashed=0;labelBackgroundColor=none;" vertex="1" parent="ZYmCYi-xUUNIlI-mYGhi-31">
          <mxGeometry x="40" y="41" width="1360" height="839" as="geometry" />
        </mxCell>
        <mxCell id="2ai0zUBbchDWTdlSH7e3-2" value="" style="fillColor=none;strokeColor=#5A6C86;dashed=1;verticalAlign=top;fontStyle=0;fontColor=#5A6C86;whiteSpace=wrap;html=1;" vertex="1" parent="ZYmCYi-xUUNIlI-mYGhi-32">
          <mxGeometry x="40" y="278" width="1280" height="242" as="geometry" />
        </mxCell>
        <mxCell id="ZYmCYi-xUUNIlI-mYGhi-2" value="Availability Zone" style="fillColor=none;strokeColor=#147EBA;dashed=1;verticalAlign=top;fontStyle=0;fontColor=#147EBA;whiteSpace=wrap;html=1;" vertex="1" parent="ZYmCYi-xUUNIlI-mYGhi-32">
          <mxGeometry x="120" y="39.5" width="280" height="720.5" as="geometry" />
        </mxCell>
        <mxCell id="ZYmCYi-xUUNIlI-mYGhi-5" value="Availability Zone" style="fillColor=none;strokeColor=#147EBA;dashed=1;verticalAlign=top;fontStyle=0;fontColor=#147EBA;whiteSpace=wrap;html=1;" vertex="1" parent="ZYmCYi-xUUNIlI-mYGhi-32">
          <mxGeometry x="960" y="39.5" width="280" height="720.5" as="geometry" />
        </mxCell>
        <mxCell id="ZYmCYi-xUUNIlI-mYGhi-6" value="Availability Zone" style="fillColor=none;strokeColor=#147EBA;dashed=1;verticalAlign=top;fontStyle=0;fontColor=#147EBA;whiteSpace=wrap;html=1;" vertex="1" parent="ZYmCYi-xUUNIlI-mYGhi-32">
          <mxGeometry x="640" y="39.5" width="280" height="720.5" as="geometry" />
        </mxCell>
        <mxCell id="2ai0zUBbchDWTdlSH7e3-4" style="edgeStyle=orthogonalEdgeStyle;rounded=0;orthogonalLoop=1;jettySize=auto;html=1;" edge="1" parent="ZYmCYi-xUUNIlI-mYGhi-32" source="ZYmCYi-xUUNIlI-mYGhi-36" target="ZYmCYi-xUUNIlI-mYGhi-33">
          <mxGeometry relative="1" as="geometry" />
        </mxCell>
        <mxCell id="ZYmCYi-xUUNIlI-mYGhi-36" value="&amp;nbsp;IGW&amp;nbsp;" style="sketch=0;outlineConnect=0;fontColor=#232F3E;gradientColor=none;fillColor=#8C4FFF;strokeColor=none;dashed=0;verticalLabelPosition=bottom;verticalAlign=top;align=center;html=1;fontSize=12;fontStyle=0;aspect=fixed;pointerEvents=1;shape=mxgraph.aws4.internet_gateway;labelBackgroundColor=default;labelBorderColor=#FF8000;" vertex="1" parent="ZYmCYi-xUUNIlI-mYGhi-32">
          <mxGeometry x="430" y="-32" width="60" height="60" as="geometry" />
        </mxCell>
        <mxCell id="ZYmCYi-xUUNIlI-mYGhi-13" value="Public subnet" style="points=[[0,0],[0.25,0],[0.5,0],[0.75,0],[1,0],[1,0.25],[1,0.5],[1,0.75],[1,1],[0.75,1],[0.5,1],[0.25,1],[0,1],[0,0.75],[0,0.5],[0,0.25]];outlineConnect=0;gradientColor=none;html=1;whiteSpace=wrap;fontSize=12;fontStyle=0;container=1;pointerEvents=0;collapsible=0;recursiveResize=0;shape=mxgraph.aws4.group;grIcon=mxgraph.aws4.group_security_group;grStroke=0;strokeColor=#7AA116;fillColor=#F2F6E8;verticalAlign=top;align=left;spacingLeft=30;fontColor=#248814;dashed=0;" vertex="1" parent="ZYmCYi-xUUNIlI-mYGhi-32">
          <mxGeometry x="160" y="99" width="200" height="120" as="geometry" />
        </mxCell>
        <mxCell id="ZYmCYi-xUUNIlI-mYGhi-14" value="Public subnet" style="points=[[0,0],[0.25,0],[0.5,0],[0.75,0],[1,0],[1,0.25],[1,0.5],[1,0.75],[1,1],[0.75,1],[0.5,1],[0.25,1],[0,1],[0,0.75],[0,0.5],[0,0.25]];outlineConnect=0;gradientColor=none;html=1;whiteSpace=wrap;fontSize=12;fontStyle=0;container=1;pointerEvents=0;collapsible=0;recursiveResize=0;shape=mxgraph.aws4.group;grIcon=mxgraph.aws4.group_security_group;grStroke=0;strokeColor=#7AA116;fillColor=#F2F6E8;verticalAlign=top;align=left;spacingLeft=30;fontColor=#248814;dashed=0;" vertex="1" parent="ZYmCYi-xUUNIlI-mYGhi-32">
          <mxGeometry x="680" y="99" width="200" height="120" as="geometry" />
        </mxCell>
        <mxCell id="ZYmCYi-xUUNIlI-mYGhi-15" value="Public subnet" style="points=[[0,0],[0.25,0],[0.5,0],[0.75,0],[1,0],[1,0.25],[1,0.5],[1,0.75],[1,1],[0.75,1],[0.5,1],[0.25,1],[0,1],[0,0.75],[0,0.5],[0,0.25]];outlineConnect=0;gradientColor=none;html=1;whiteSpace=wrap;fontSize=12;fontStyle=0;container=1;pointerEvents=0;collapsible=0;recursiveResize=0;shape=mxgraph.aws4.group;grIcon=mxgraph.aws4.group_security_group;grStroke=0;strokeColor=#7AA116;fillColor=#F2F6E8;verticalAlign=top;align=left;spacingLeft=30;fontColor=#248814;dashed=0;" vertex="1" parent="ZYmCYi-xUUNIlI-mYGhi-32">
          <mxGeometry x="1000" y="99" width="200" height="120" as="geometry" />
        </mxCell>
        <mxCell id="ZYmCYi-xUUNIlI-mYGhi-20" value="Public subnet" style="points=[[0,0],[0.25,0],[0.5,0],[0.75,0],[1,0],[1,0.25],[1,0.5],[1,0.75],[1,1],[0.75,1],[0.5,1],[0.25,1],[0,1],[0,0.75],[0,0.5],[0,0.25]];outlineConnect=0;gradientColor=none;html=1;whiteSpace=wrap;fontSize=12;fontStyle=0;container=1;pointerEvents=0;collapsible=0;recursiveResize=0;shape=mxgraph.aws4.group;grIcon=mxgraph.aws4.group_security_group;grStroke=0;strokeColor=#7AA116;fillColor=#F2F6E8;verticalAlign=top;align=left;spacingLeft=30;fontColor=#248814;dashed=0;" vertex="1" parent="ZYmCYi-xUUNIlI-mYGhi-32">
          <mxGeometry x="160" y="598" width="200" height="120" as="geometry" />
        </mxCell>
        <mxCell id="2whNc9zPOyyK-Mm6IZwf-77" value=" NAT Gateway " style="sketch=0;outlineConnect=0;fontColor=#232F3E;gradientColor=none;fillColor=#8C4FFF;strokeColor=none;dashed=0;verticalLabelPosition=bottom;verticalAlign=top;align=center;fontSize=12;fontStyle=0;aspect=fixed;pointerEvents=1;shape=mxgraph.aws4.nat_gateway;labelBackgroundColor=default;labelBorderColor=#FF8000;html=1;" vertex="1" parent="ZYmCYi-xUUNIlI-mYGhi-20">
          <mxGeometry x="70" y="30" width="60" height="60" as="geometry" />
        </mxCell>
        <mxCell id="ZYmCYi-xUUNIlI-mYGhi-18" value="Public subnet" style="points=[[0,0],[0.25,0],[0.5,0],[0.75,0],[1,0],[1,0.25],[1,0.5],[1,0.75],[1,1],[0.75,1],[0.5,1],[0.25,1],[0,1],[0,0.75],[0,0.5],[0,0.25]];outlineConnect=0;gradientColor=none;html=1;whiteSpace=wrap;fontSize=12;fontStyle=0;container=1;pointerEvents=0;collapsible=0;recursiveResize=0;shape=mxgraph.aws4.group;grIcon=mxgraph.aws4.group_security_group;grStroke=0;strokeColor=#7AA116;fillColor=#F2F6E8;verticalAlign=top;align=left;spacingLeft=30;fontColor=#248814;dashed=0;" vertex="1" parent="ZYmCYi-xUUNIlI-mYGhi-32">
          <mxGeometry x="689" y="598" width="191" height="120" as="geometry" />
        </mxCell>
        <mxCell id="ZYmCYi-xUUNIlI-mYGhi-19" value="&amp;nbsp;NAT Gateway&amp;nbsp;" style="sketch=0;outlineConnect=0;fontColor=#232F3E;gradientColor=none;fillColor=#8C4FFF;strokeColor=none;dashed=0;verticalLabelPosition=bottom;verticalAlign=top;align=center;html=1;fontSize=12;fontStyle=0;aspect=fixed;pointerEvents=1;shape=mxgraph.aws4.nat_gateway;labelBackgroundColor=default;labelBorderColor=#FF8000;" vertex="1" parent="ZYmCYi-xUUNIlI-mYGhi-18">
          <mxGeometry x="65.5" y="30" width="60" height="60" as="geometry" />
        </mxCell>
        <mxCell id="ZYmCYi-xUUNIlI-mYGhi-16" value="Public subnet" style="points=[[0,0],[0.25,0],[0.5,0],[0.75,0],[1,0],[1,0.25],[1,0.5],[1,0.75],[1,1],[0.75,1],[0.5,1],[0.25,1],[0,1],[0,0.75],[0,0.5],[0,0.25]];outlineConnect=0;gradientColor=none;html=1;whiteSpace=wrap;fontSize=12;fontStyle=0;container=1;pointerEvents=0;collapsible=0;recursiveResize=0;shape=mxgraph.aws4.group;grIcon=mxgraph.aws4.group_security_group;grStroke=0;strokeColor=#7AA116;fillColor=#F2F6E8;verticalAlign=top;align=left;spacingLeft=30;fontColor=#248814;dashed=0;" vertex="1" parent="ZYmCYi-xUUNIlI-mYGhi-32">
          <mxGeometry x="1000" y="598" width="200" height="120" as="geometry" />
        </mxCell>
        <mxCell id="ZYmCYi-xUUNIlI-mYGhi-17" value="&amp;nbsp;NAT Gateway&amp;nbsp;" style="sketch=0;outlineConnect=0;fontColor=#232F3E;gradientColor=none;fillColor=#8C4FFF;strokeColor=none;dashed=0;verticalLabelPosition=bottom;verticalAlign=top;align=center;html=1;fontSize=12;fontStyle=0;aspect=fixed;pointerEvents=1;shape=mxgraph.aws4.nat_gateway;labelBackgroundColor=default;labelBorderColor=#FF8000;" vertex="1" parent="ZYmCYi-xUUNIlI-mYGhi-16">
          <mxGeometry x="70" y="30" width="60" height="60" as="geometry" />
        </mxCell>
        <mxCell id="ZYmCYi-xUUNIlI-mYGhi-38" value="&amp;nbsp;Application Load Balancer&amp;nbsp;&amp;nbsp;" style="fillColor=none;strokeColor=#5A6C86;dashed=1;verticalAlign=top;fontStyle=0;fontColor=#5A6C86;whiteSpace=wrap;html=1;labelBackgroundColor=default;labelBorderColor=none;" vertex="1" parent="ZYmCYi-xUUNIlI-mYGhi-32">
          <mxGeometry x="40" y="68" width="1280" height="182" as="geometry" />
        </mxCell>
        <mxCell id="2ai0zUBbchDWTdlSH7e3-5" style="edgeStyle=orthogonalEdgeStyle;rounded=0;orthogonalLoop=1;jettySize=auto;html=1;" edge="1" parent="ZYmCYi-xUUNIlI-mYGhi-32" source="ZYmCYi-xUUNIlI-mYGhi-33">
          <mxGeometry relative="1" as="geometry">
            <mxPoint x="460" y="278" as="targetPoint" />
            <Array as="points" />
          </mxGeometry>
        </mxCell>
        <mxCell id="ZYmCYi-xUUNIlI-mYGhi-33" value="&amp;nbsp;ALB&amp;nbsp;" style="sketch=0;outlineConnect=0;fontColor=#232F3E;gradientColor=none;fillColor=#8C4FFF;strokeColor=none;dashed=0;verticalLabelPosition=bottom;verticalAlign=top;align=center;html=1;fontSize=12;fontStyle=0;aspect=fixed;pointerEvents=1;shape=mxgraph.aws4.application_load_balancer;labelBackgroundColor=default;labelBorderColor=#FF8000;container=0;" vertex="1" parent="ZYmCYi-xUUNIlI-mYGhi-32">
          <mxGeometry x="430.0033333333331" y="128" width="60" height="60" as="geometry" />
        </mxCell>
        <mxCell id="2ai0zUBbchDWTdlSH7e3-3" style="edgeStyle=orthogonalEdgeStyle;rounded=0;orthogonalLoop=1;jettySize=auto;html=1;" edge="1" parent="ZYmCYi-xUUNIlI-mYGhi-32" source="ZYmCYi-xUUNIlI-mYGhi-35" target="ZYmCYi-xUUNIlI-mYGhi-33">
          <mxGeometry relative="1" as="geometry" />
        </mxCell>
        <mxCell id="ZYmCYi-xUUNIlI-mYGhi-35" value="&amp;nbsp;WAF&amp;nbsp;" style="sketch=0;points=[[0,0,0],[0.25,0,0],[0.5,0,0],[0.75,0,0],[1,0,0],[0,1,0],[0.25,1,0],[0.5,1,0],[0.75,1,0],[1,1,0],[0,0.25,0],[0,0.5,0],[0,0.75,0],[1,0.25,0],[1,0.5,0],[1,0.75,0]];outlineConnect=0;fontColor=#232F3E;fillColor=#DD344C;strokeColor=#ffffff;dashed=0;verticalLabelPosition=bottom;verticalAlign=top;align=center;html=1;fontSize=12;fontStyle=0;aspect=fixed;shape=mxgraph.aws4.resourceIcon;resIcon=mxgraph.aws4.waf;labelBackgroundColor=default;labelBorderColor=#FF8000;" vertex="1" parent="ZYmCYi-xUUNIlI-mYGhi-32">
          <mxGeometry x="550.0033333333331" y="128" width="60" height="60" as="geometry" />
        </mxCell>
        <mxCell id="2whNc9zPOyyK-Mm6IZwf-93" value="Security group" style="fillColor=none;strokeColor=#DD3522;verticalAlign=top;fontStyle=0;fontColor=#DD3522;whiteSpace=wrap;html=1;" vertex="1" parent="ZYmCYi-xUUNIlI-mYGhi-32">
          <mxGeometry x="60" y="298" width="1240" height="202" as="geometry" />
        </mxCell>
        <mxCell id="2whNc9zPOyyK-Mm6IZwf-94" value="&amp;nbsp;ECS&amp;nbsp;" style="sketch=0;points=[[0,0,0],[0.25,0,0],[0.5,0,0],[0.75,0,0],[1,0,0],[0,1,0],[0.25,1,0],[0.5,1,0],[0.75,1,0],[1,1,0],[0,0.25,0],[0,0.5,0],[0,0.75,0],[1,0.25,0],[1,0.5,0],[1,0.75,0]];outlineConnect=0;fontColor=#232F3E;fillColor=#ED7100;strokeColor=#ffffff;dashed=0;verticalLabelPosition=middle;verticalAlign=middle;align=left;html=1;fontSize=12;fontStyle=0;aspect=fixed;shape=mxgraph.aws4.resourceIcon;resIcon=mxgraph.aws4.ecs;labelBackgroundColor=default;labelPosition=right;" vertex="1" parent="ZYmCYi-xUUNIlI-mYGhi-32">
          <mxGeometry x="40" y="278" width="60" height="60" as="geometry" />
        </mxCell>
        <mxCell id="ZYmCYi-xUUNIlI-mYGhi-7" value="Private subnet" style="points=[[0,0],[0.25,0],[0.5,0],[0.75,0],[1,0],[1,0.25],[1,0.5],[1,0.75],[1,1],[0.75,1],[0.5,1],[0.25,1],[0,1],[0,0.75],[0,0.5],[0,0.25]];outlineConnect=0;gradientColor=none;html=1;whiteSpace=wrap;fontSize=12;fontStyle=0;container=0;pointerEvents=0;collapsible=0;recursiveResize=0;shape=mxgraph.aws4.group;grIcon=mxgraph.aws4.group_security_group;grStroke=0;strokeColor=#00A4A6;fillColor=#E6F6F7;verticalAlign=top;align=left;spacingLeft=30;fontColor=#147EBA;dashed=0;" vertex="1" parent="ZYmCYi-xUUNIlI-mYGhi-32">
          <mxGeometry x="160" y="318" width="200" height="160" as="geometry" />
        </mxCell>
        <mxCell id="ZYmCYi-xUUNIlI-mYGhi-8" value="Private subnet" style="points=[[0,0],[0.25,0],[0.5,0],[0.75,0],[1,0],[1,0.25],[1,0.5],[1,0.75],[1,1],[0.75,1],[0.5,1],[0.25,1],[0,1],[0,0.75],[0,0.5],[0,0.25]];outlineConnect=0;gradientColor=none;html=1;whiteSpace=wrap;fontSize=12;fontStyle=0;container=0;pointerEvents=0;collapsible=0;recursiveResize=0;shape=mxgraph.aws4.group;grIcon=mxgraph.aws4.group_security_group;grStroke=0;strokeColor=#00A4A6;fillColor=#E6F6F7;verticalAlign=top;align=left;spacingLeft=30;fontColor=#147EBA;dashed=0;" vertex="1" parent="ZYmCYi-xUUNIlI-mYGhi-32">
          <mxGeometry x="680" y="319.75" width="200" height="160" as="geometry" />
        </mxCell>
        <mxCell id="ZYmCYi-xUUNIlI-mYGhi-11" value="Private subnet" style="points=[[0,0],[0.25,0],[0.5,0],[0.75,0],[1,0],[1,0.25],[1,0.5],[1,0.75],[1,1],[0.75,1],[0.5,1],[0.25,1],[0,1],[0,0.75],[0,0.5],[0,0.25]];outlineConnect=0;gradientColor=none;html=1;whiteSpace=wrap;fontSize=12;fontStyle=0;container=0;pointerEvents=0;collapsible=0;recursiveResize=0;shape=mxgraph.aws4.group;grIcon=mxgraph.aws4.group_security_group;grStroke=0;strokeColor=#00A4A6;fillColor=#E6F6F7;verticalAlign=top;align=left;spacingLeft=30;fontColor=#147EBA;dashed=0;" vertex="1" parent="ZYmCYi-xUUNIlI-mYGhi-32">
          <mxGeometry x="1000" y="318" width="200" height="160" as="geometry" />
        </mxCell>
        <mxCell id="2whNc9zPOyyK-Mm6IZwf-98" style="edgeStyle=orthogonalEdgeStyle;rounded=0;orthogonalLoop=1;jettySize=auto;html=1;" edge="1" parent="ZYmCYi-xUUNIlI-mYGhi-32" source="2whNc9zPOyyK-Mm6IZwf-1" target="2whNc9zPOyyK-Mm6IZwf-69">
          <mxGeometry relative="1" as="geometry" />
        </mxCell>
        <mxCell id="2whNc9zPOyyK-Mm6IZwf-101" style="edgeStyle=orthogonalEdgeStyle;rounded=0;orthogonalLoop=1;jettySize=auto;html=1;" edge="1" parent="ZYmCYi-xUUNIlI-mYGhi-32" source="2whNc9zPOyyK-Mm6IZwf-1" target="2whNc9zPOyyK-Mm6IZwf-77">
          <mxGeometry relative="1" as="geometry">
            <Array as="points">
              <mxPoint x="140" y="398" />
              <mxPoint x="140" y="658" />
            </Array>
          </mxGeometry>
        </mxCell>
        <mxCell id="2whNc9zPOyyK-Mm6IZwf-1" value="&amp;nbsp;App&amp;nbsp;" style="sketch=0;points=[[0,0,0],[0.25,0,0],[0.5,0,0],[0.75,0,0],[1,0,0],[0,1,0],[0.25,1,0],[0.5,1,0],[0.75,1,0],[1,1,0],[0,0.25,0],[0,0.5,0],[0,0.75,0],[1,0.25,0],[1,0.5,0],[1,0.75,0]];outlineConnect=0;fontColor=#232F3E;fillColor=#ED7100;strokeColor=#ffffff;dashed=0;verticalLabelPosition=bottom;verticalAlign=top;align=center;html=1;fontSize=12;fontStyle=0;aspect=fixed;shape=mxgraph.aws4.resourceIcon;resIcon=mxgraph.aws4.ec2;labelBackgroundColor=default;labelBorderColor=#FF8000;" vertex="1" parent="ZYmCYi-xUUNIlI-mYGhi-32">
          <mxGeometry x="180" y="368" width="60" height="60" as="geometry" />
        </mxCell>
        <mxCell id="2whNc9zPOyyK-Mm6IZwf-69" value="&amp;nbsp;ENI&amp;nbsp;" style="sketch=0;outlineConnect=0;fontColor=#232F3E;gradientColor=none;fillColor=#8C4FFF;strokeColor=none;dashed=0;verticalLabelPosition=bottom;verticalAlign=top;align=center;html=1;fontSize=12;fontStyle=0;aspect=fixed;pointerEvents=1;shape=mxgraph.aws4.elastic_network_interface;labelBackgroundColor=default;labelBorderColor=#0000FF;" vertex="1" parent="ZYmCYi-xUUNIlI-mYGhi-32">
          <mxGeometry x="290" y="368" width="60" height="60" as="geometry" />
        </mxCell>
        <mxCell id="2whNc9zPOyyK-Mm6IZwf-99" style="edgeStyle=orthogonalEdgeStyle;rounded=0;orthogonalLoop=1;jettySize=auto;html=1;" edge="1" parent="ZYmCYi-xUUNIlI-mYGhi-32" source="2whNc9zPOyyK-Mm6IZwf-0" target="2whNc9zPOyyK-Mm6IZwf-70">
          <mxGeometry relative="1" as="geometry" />
        </mxCell>
        <mxCell id="2whNc9zPOyyK-Mm6IZwf-102" style="edgeStyle=orthogonalEdgeStyle;rounded=0;orthogonalLoop=1;jettySize=auto;html=1;" edge="1" parent="ZYmCYi-xUUNIlI-mYGhi-32" source="2whNc9zPOyyK-Mm6IZwf-0" target="ZYmCYi-xUUNIlI-mYGhi-19">
          <mxGeometry relative="1" as="geometry">
            <Array as="points">
              <mxPoint x="660" y="398" />
              <mxPoint x="660" y="658" />
            </Array>
          </mxGeometry>
        </mxCell>
        <mxCell id="2whNc9zPOyyK-Mm6IZwf-0" value="&amp;nbsp;App&amp;nbsp;" style="sketch=0;points=[[0,0,0],[0.25,0,0],[0.5,0,0],[0.75,0,0],[1,0,0],[0,1,0],[0.25,1,0],[0.5,1,0],[0.75,1,0],[1,1,0],[0,0.25,0],[0,0.5,0],[0,0.75,0],[1,0.25,0],[1,0.5,0],[1,0.75,0]];outlineConnect=0;fontColor=#232F3E;fillColor=#ED7100;strokeColor=#ffffff;dashed=0;verticalLabelPosition=bottom;verticalAlign=top;align=center;html=1;fontSize=12;fontStyle=0;aspect=fixed;shape=mxgraph.aws4.resourceIcon;resIcon=mxgraph.aws4.ec2;labelBackgroundColor=default;labelBorderColor=#FF8000;" vertex="1" parent="ZYmCYi-xUUNIlI-mYGhi-32">
          <mxGeometry x="710" y="368" width="60" height="60" as="geometry" />
        </mxCell>
        <mxCell id="2whNc9zPOyyK-Mm6IZwf-70" value="&amp;nbsp;ENI&amp;nbsp;" style="sketch=0;outlineConnect=0;fontColor=#232F3E;gradientColor=none;fillColor=#8C4FFF;strokeColor=none;dashed=0;verticalLabelPosition=bottom;verticalAlign=top;align=center;html=1;fontSize=12;fontStyle=0;aspect=fixed;pointerEvents=1;shape=mxgraph.aws4.elastic_network_interface;labelBackgroundColor=default;labelBorderColor=#0000FF;" vertex="1" parent="ZYmCYi-xUUNIlI-mYGhi-32">
          <mxGeometry x="810" y="368" width="60" height="60" as="geometry" />
        </mxCell>
        <mxCell id="2whNc9zPOyyK-Mm6IZwf-100" style="edgeStyle=orthogonalEdgeStyle;rounded=0;orthogonalLoop=1;jettySize=auto;html=1;" edge="1" parent="ZYmCYi-xUUNIlI-mYGhi-32" source="2ai0zUBbchDWTdlSH7e3-6" target="2whNc9zPOyyK-Mm6IZwf-71">
          <mxGeometry relative="1" as="geometry" />
        </mxCell>
        <mxCell id="2whNc9zPOyyK-Mm6IZwf-103" style="edgeStyle=orthogonalEdgeStyle;rounded=0;orthogonalLoop=1;jettySize=auto;html=1;" edge="1" parent="ZYmCYi-xUUNIlI-mYGhi-32" source="2ai0zUBbchDWTdlSH7e3-6" target="ZYmCYi-xUUNIlI-mYGhi-17">
          <mxGeometry relative="1" as="geometry">
            <Array as="points">
              <mxPoint x="980" y="400" />
              <mxPoint x="980" y="658" />
            </Array>
          </mxGeometry>
        </mxCell>
        <mxCell id="2ai0zUBbchDWTdlSH7e3-6" value="&amp;nbsp;App&amp;nbsp;" style="sketch=0;points=[[0,0,0],[0.25,0,0],[0.5,0,0],[0.75,0,0],[1,0,0],[0,1,0],[0.25,1,0],[0.5,1,0],[0.75,1,0],[1,1,0],[0,0.25,0],[0,0.5,0],[0,0.75,0],[1,0.25,0],[1,0.5,0],[1,0.75,0]];outlineConnect=0;fontColor=#232F3E;fillColor=#ED7100;strokeColor=#ffffff;dashed=0;verticalLabelPosition=bottom;verticalAlign=top;align=center;html=1;fontSize=12;fontStyle=0;aspect=fixed;shape=mxgraph.aws4.resourceIcon;resIcon=mxgraph.aws4.ec2;labelBackgroundColor=default;labelBorderColor=#FF8000;" vertex="1" parent="ZYmCYi-xUUNIlI-mYGhi-32">
          <mxGeometry x="1020" y="369.75" width="60" height="60" as="geometry" />
        </mxCell>
        <mxCell id="2whNc9zPOyyK-Mm6IZwf-71" value="&amp;nbsp;ENI&amp;nbsp;" style="sketch=0;outlineConnect=0;fontColor=#232F3E;gradientColor=none;fillColor=#8C4FFF;strokeColor=none;dashed=0;verticalLabelPosition=bottom;verticalAlign=top;align=center;html=1;fontSize=12;fontStyle=0;aspect=fixed;pointerEvents=1;shape=mxgraph.aws4.elastic_network_interface;labelBackgroundColor=default;labelBorderColor=#0000FF;" vertex="1" parent="ZYmCYi-xUUNIlI-mYGhi-32">
          <mxGeometry x="1120" y="369.75" width="60" height="60" as="geometry" />
        </mxCell>
        <mxCell id="2whNc9zPOyyK-Mm6IZwf-104" value="Security group" style="fillColor=none;strokeColor=#DD3522;verticalAlign=top;fontStyle=0;fontColor=#DD3522;whiteSpace=wrap;html=1;labelPosition=center;verticalLabelPosition=bottom;align=center;" vertex="1" parent="ZYmCYi-xUUNIlI-mYGhi-32">
          <mxGeometry x="60" y="94" width="1240" height="130" as="geometry" />
        </mxCell>
        <mxCell id="2whNc9zPOyyK-Mm6IZwf-95" style="edgeStyle=orthogonalEdgeStyle;rounded=0;orthogonalLoop=1;jettySize=auto;html=1;" edge="1" parent="ZYmCYi-xUUNIlI-mYGhi-31" source="2whNc9zPOyyK-Mm6IZwf-71" target="2whNc9zPOyyK-Mm6IZwf-65">
          <mxGeometry relative="1" as="geometry">
            <Array as="points">
              <mxPoint x="1190" y="599" />
            </Array>
          </mxGeometry>
        </mxCell>
        <mxCell id="2whNc9zPOyyK-Mm6IZwf-96" style="edgeStyle=orthogonalEdgeStyle;rounded=0;orthogonalLoop=1;jettySize=auto;html=1;" edge="1" parent="ZYmCYi-xUUNIlI-mYGhi-31" source="2whNc9zPOyyK-Mm6IZwf-70" target="2whNc9zPOyyK-Mm6IZwf-65">
          <mxGeometry relative="1" as="geometry">
            <Array as="points">
              <mxPoint x="880" y="599" />
            </Array>
          </mxGeometry>
        </mxCell>
        <mxCell id="2whNc9zPOyyK-Mm6IZwf-97" style="edgeStyle=orthogonalEdgeStyle;rounded=0;orthogonalLoop=1;jettySize=auto;html=1;" edge="1" parent="ZYmCYi-xUUNIlI-mYGhi-31" source="2whNc9zPOyyK-Mm6IZwf-69" target="2whNc9zPOyyK-Mm6IZwf-65">
          <mxGeometry relative="1" as="geometry">
            <Array as="points">
              <mxPoint x="360" y="599" />
            </Array>
          </mxGeometry>
        </mxCell>
        <mxCell id="ZYmCYi-xUUNIlI-mYGhi-39" style="edgeStyle=orthogonalEdgeStyle;rounded=0;orthogonalLoop=1;jettySize=auto;html=1;" edge="1" parent="ZYmCYi-xUUNIlI-mYGhi-1" source="ZYmCYi-xUUNIlI-mYGhi-42" target="ZYmCYi-xUUNIlI-mYGhi-43">
          <mxGeometry relative="1" as="geometry">
            <mxPoint x="900" y="140" as="sourcePoint" />
            <mxPoint x="900" y="320" as="targetPoint" />
          </mxGeometry>
        </mxCell>
        <mxCell id="ZYmCYi-xUUNIlI-mYGhi-40" value="&amp;nbsp;Yahoo! Weather" style="sketch=0;outlineConnect=0;fontColor=#232F3E;gradientColor=none;fillColor=#232F3D;strokeColor=none;dashed=0;verticalLabelPosition=bottom;verticalAlign=top;align=center;html=1;fontSize=12;fontStyle=0;aspect=fixed;pointerEvents=1;shape=mxgraph.aws4.traditional_server;labelBackgroundColor=default;" vertex="1" parent="ZYmCYi-xUUNIlI-mYGhi-1">
          <mxGeometry x="280" y="1240" width="34.62" height="60" as="geometry" />
        </mxCell>
        <mxCell id="ZYmCYi-xUUNIlI-mYGhi-42" value="User" style="sketch=0;outlineConnect=0;fontColor=#232F3E;gradientColor=none;fillColor=#232F3D;strokeColor=none;dashed=0;verticalLabelPosition=bottom;verticalAlign=top;align=center;html=1;fontSize=12;fontStyle=0;aspect=fixed;pointerEvents=1;shape=mxgraph.aws4.user;labelBackgroundColor=default;labelBorderColor=none;" vertex="1" parent="ZYmCYi-xUUNIlI-mYGhi-1">
          <mxGeometry x="780" y="300" width="60" height="60" as="geometry" />
        </mxCell>
        <mxCell id="ZYmCYi-xUUNIlI-mYGhi-43" value="Internet" style="sketch=0;outlineConnect=0;fontColor=#232F3E;gradientColor=none;fillColor=#232F3D;strokeColor=none;dashed=0;verticalLabelPosition=bottom;verticalAlign=top;align=center;html=1;fontSize=12;fontStyle=0;aspect=fixed;pointerEvents=1;shape=mxgraph.aws4.internet;labelBackgroundColor=default;" vertex="1" parent="ZYmCYi-xUUNIlI-mYGhi-1">
          <mxGeometry x="910" y="311.54" width="60" height="36.92" as="geometry" />
        </mxCell>
        <mxCell id="2whNc9zPOyyK-Mm6IZwf-24" style="edgeStyle=orthogonalEdgeStyle;rounded=0;orthogonalLoop=1;jettySize=auto;html=1;" edge="1" parent="ZYmCYi-xUUNIlI-mYGhi-1" source="ZYmCYi-xUUNIlI-mYGhi-19" target="ZYmCYi-xUUNIlI-mYGhi-40">
          <mxGeometry relative="1" as="geometry">
            <Array as="points">
              <mxPoint x="1220" y="1280" />
              <mxPoint x="297" y="1280" />
            </Array>
          </mxGeometry>
        </mxCell>
        <mxCell id="2whNc9zPOyyK-Mm6IZwf-25" style="edgeStyle=orthogonalEdgeStyle;rounded=0;orthogonalLoop=1;jettySize=auto;html=1;" edge="1" parent="ZYmCYi-xUUNIlI-mYGhi-1" source="ZYmCYi-xUUNIlI-mYGhi-17" target="ZYmCYi-xUUNIlI-mYGhi-40">
          <mxGeometry relative="1" as="geometry">
            <Array as="points">
              <mxPoint x="1540" y="1280" />
              <mxPoint x="297" y="1280" />
            </Array>
          </mxGeometry>
        </mxCell>
        <mxCell id="2whNc9zPOyyK-Mm6IZwf-88" style="edgeStyle=orthogonalEdgeStyle;rounded=0;orthogonalLoop=1;jettySize=auto;html=1;" edge="1" parent="ZYmCYi-xUUNIlI-mYGhi-1" source="2whNc9zPOyyK-Mm6IZwf-77" target="ZYmCYi-xUUNIlI-mYGhi-40">
          <mxGeometry relative="1" as="geometry">
            <Array as="points">
              <mxPoint x="700" y="1280" />
              <mxPoint x="297" y="1280" />
            </Array>
          </mxGeometry>
        </mxCell>
      </root>
    </mxGraphModel>
  </diagram>
  <diagram id="Ht1M8jgEwFfnCIfOTk4-" name="Improvement 1">
    <mxGraphModel dx="2758" dy="1458" grid="1" gridSize="10" guides="1" tooltips="1" connect="1" arrows="1" fold="1" page="1" pageScale="1" pageWidth="1169" pageHeight="827" math="0" shadow="0">
      <root>
        <mxCell id="0" />
        <mxCell id="1" parent="0" />
        <mxCell id="G_RVJJgJg-_Y7gR2q2FS-7" value="Availability Zone" style="fillColor=none;strokeColor=#147EBA;dashed=1;verticalAlign=top;fontStyle=0;fontColor=#147EBA;whiteSpace=wrap;html=1;" parent="1" vertex="1">
          <mxGeometry x="540" y="521" width="280" height="680" as="geometry" />
        </mxCell>
        <mxCell id="yOcgrLrnBPm2YluRwdYc-55" value="" style="edgeStyle=orthogonalEdgeStyle;rounded=0;orthogonalLoop=1;jettySize=auto;html=1;" parent="1" source="hDuMB5a9iLOk_4-JMxDB-4" target="yOcgrLrnBPm2YluRwdYc-54" edge="1">
          <mxGeometry relative="1" as="geometry">
            <mxPoint x="900" y="357.8000000000002" as="sourcePoint" />
            <mxPoint x="970" y="630" as="targetPoint" />
          </mxGeometry>
        </mxCell>
        <mxCell id="yOcgrLrnBPm2YluRwdYc-2" value="AWS Cloud" style="points=[[0,0],[0.25,0],[0.5,0],[0.75,0],[1,0],[1,0.25],[1,0.5],[1,0.75],[1,1],[0.75,1],[0.5,1],[0.25,1],[0,1],[0,0.75],[0,0.5],[0,0.25]];outlineConnect=0;gradientColor=none;fontSize=12;fontStyle=0;container=1;pointerEvents=0;collapsible=0;recursiveResize=0;shape=mxgraph.aws4.group;grIcon=mxgraph.aws4.group_aws_cloud_alt;strokeColor=#232F3E;fillColor=none;verticalAlign=top;align=left;spacingLeft=30;fontColor=#232F3E;dashed=0;html=1;whiteSpace=wrap;" parent="1" vertex="1">
          <mxGeometry x="420" y="401" width="1440" height="919" as="geometry" />
        </mxCell>
        <mxCell id="G_RVJJgJg-_Y7gR2q2FS-68" value="Availability Zone" style="fillColor=none;strokeColor=#147EBA;dashed=1;verticalAlign=top;fontStyle=0;fontColor=#147EBA;whiteSpace=wrap;html=1;" parent="yOcgrLrnBPm2YluRwdYc-2" vertex="1">
          <mxGeometry x="1040" y="120" width="280" height="680" as="geometry" />
        </mxCell>
        <mxCell id="G_RVJJgJg-_Y7gR2q2FS-67" value="Availability Zone" style="fillColor=none;strokeColor=#147EBA;dashed=1;verticalAlign=top;fontStyle=0;fontColor=#147EBA;whiteSpace=wrap;html=1;" parent="yOcgrLrnBPm2YluRwdYc-2" vertex="1">
          <mxGeometry x="670" y="120" width="280" height="680" as="geometry" />
        </mxCell>
        <mxCell id="G_RVJJgJg-_Y7gR2q2FS-72" value="Private subnet" style="points=[[0,0],[0.25,0],[0.5,0],[0.75,0],[1,0],[1,0.25],[1,0.5],[1,0.75],[1,1],[0.75,1],[0.5,1],[0.25,1],[0,1],[0,0.75],[0,0.5],[0,0.25]];outlineConnect=0;gradientColor=none;html=1;whiteSpace=wrap;fontSize=12;fontStyle=0;container=0;pointerEvents=0;collapsible=0;recursiveResize=0;shape=mxgraph.aws4.group;grIcon=mxgraph.aws4.group_security_group;grStroke=0;strokeColor=#00A4A6;fillColor=#E6F6F7;verticalAlign=top;align=left;spacingLeft=30;fontColor=#147EBA;dashed=0;" parent="yOcgrLrnBPm2YluRwdYc-2" vertex="1">
          <mxGeometry x="1080" y="397.5" width="200" height="160" as="geometry" />
        </mxCell>
        <mxCell id="G_RVJJgJg-_Y7gR2q2FS-71" value="Private subnet" style="points=[[0,0],[0.25,0],[0.5,0],[0.75,0],[1,0],[1,0.25],[1,0.5],[1,0.75],[1,1],[0.75,1],[0.5,1],[0.25,1],[0,1],[0,0.75],[0,0.5],[0,0.25]];outlineConnect=0;gradientColor=none;html=1;whiteSpace=wrap;fontSize=12;fontStyle=0;container=0;pointerEvents=0;collapsible=0;recursiveResize=0;shape=mxgraph.aws4.group;grIcon=mxgraph.aws4.group_security_group;grStroke=0;strokeColor=#00A4A6;fillColor=#E6F6F7;verticalAlign=top;align=left;spacingLeft=30;fontColor=#147EBA;dashed=0;" parent="yOcgrLrnBPm2YluRwdYc-2" vertex="1">
          <mxGeometry x="720" y="397.5" width="200" height="160" as="geometry" />
        </mxCell>
        <mxCell id="G_RVJJgJg-_Y7gR2q2FS-73" value="&amp;nbsp;App&amp;nbsp;" style="sketch=0;points=[[0,0,0],[0.25,0,0],[0.5,0,0],[0.75,0,0],[1,0,0],[0,1,0],[0.25,1,0],[0.5,1,0],[0.75,1,0],[1,1,0],[0,0.25,0],[0,0.5,0],[0,0.75,0],[1,0.25,0],[1,0.5,0],[1,0.75,0]];outlineConnect=0;fontColor=#232F3E;fillColor=#ED7100;strokeColor=#ffffff;dashed=0;verticalLabelPosition=bottom;verticalAlign=top;align=center;html=1;fontSize=12;fontStyle=0;aspect=fixed;shape=mxgraph.aws4.resourceIcon;resIcon=mxgraph.aws4.compute;labelBackgroundColor=default;labelBorderColor=#FF8000;" parent="yOcgrLrnBPm2YluRwdYc-2" vertex="1">
          <mxGeometry x="790" y="447.5" width="60" height="60" as="geometry" />
        </mxCell>
        <mxCell id="G_RVJJgJg-_Y7gR2q2FS-74" value="&amp;nbsp;App&amp;nbsp;" style="sketch=0;points=[[0,0,0],[0.25,0,0],[0.5,0,0],[0.75,0,0],[1,0,0],[0,1,0],[0.25,1,0],[0.5,1,0],[0.75,1,0],[1,1,0],[0,0.25,0],[0,0.5,0],[0,0.75,0],[1,0.25,0],[1,0.5,0],[1,0.75,0]];outlineConnect=0;fontColor=#232F3E;fillColor=#ED7100;strokeColor=#ffffff;dashed=0;verticalLabelPosition=bottom;verticalAlign=top;align=center;html=1;fontSize=12;fontStyle=0;aspect=fixed;shape=mxgraph.aws4.resourceIcon;resIcon=mxgraph.aws4.compute;labelBackgroundColor=default;labelBorderColor=#FF8000;" parent="yOcgrLrnBPm2YluRwdYc-2" vertex="1">
          <mxGeometry x="1150" y="447.5" width="60" height="60" as="geometry" />
        </mxCell>
        <mxCell id="G_RVJJgJg-_Y7gR2q2FS-76" value="Private subnet" style="points=[[0,0],[0.25,0],[0.5,0],[0.75,0],[1,0],[1,0.25],[1,0.5],[1,0.75],[1,1],[0.75,1],[0.5,1],[0.25,1],[0,1],[0,0.75],[0,0.5],[0,0.25]];outlineConnect=0;gradientColor=none;html=1;whiteSpace=wrap;fontSize=12;fontStyle=0;container=0;pointerEvents=0;collapsible=0;recursiveResize=0;shape=mxgraph.aws4.group;grIcon=mxgraph.aws4.group_security_group;grStroke=0;strokeColor=#00A4A6;fillColor=#E6F6F7;verticalAlign=top;align=left;spacingLeft=30;fontColor=#147EBA;dashed=0;" parent="yOcgrLrnBPm2YluRwdYc-2" vertex="1">
          <mxGeometry x="160" y="397.5" width="200" height="160" as="geometry" />
        </mxCell>
        <mxCell id="G_RVJJgJg-_Y7gR2q2FS-77" value="&amp;nbsp;App&amp;nbsp;" style="sketch=0;points=[[0,0,0],[0.25,0,0],[0.5,0,0],[0.75,0,0],[1,0,0],[0,1,0],[0.25,1,0],[0.5,1,0],[0.75,1,0],[1,1,0],[0,0.25,0],[0,0.5,0],[0,0.75,0],[1,0.25,0],[1,0.5,0],[1,0.75,0]];outlineConnect=0;fontColor=#232F3E;fillColor=#ED7100;strokeColor=#ffffff;dashed=0;verticalLabelPosition=bottom;verticalAlign=top;align=center;html=1;fontSize=12;fontStyle=0;aspect=fixed;shape=mxgraph.aws4.resourceIcon;resIcon=mxgraph.aws4.compute;labelBackgroundColor=default;labelBorderColor=#FF8000;" parent="yOcgrLrnBPm2YluRwdYc-2" vertex="1">
          <mxGeometry x="230" y="447.5" width="60" height="60" as="geometry" />
        </mxCell>
        <mxCell id="G_RVJJgJg-_Y7gR2q2FS-82" value="Public subnet" style="points=[[0,0],[0.25,0],[0.5,0],[0.75,0],[1,0],[1,0.25],[1,0.5],[1,0.75],[1,1],[0.75,1],[0.5,1],[0.25,1],[0,1],[0,0.75],[0,0.5],[0,0.25]];outlineConnect=0;gradientColor=none;html=1;whiteSpace=wrap;fontSize=12;fontStyle=0;container=1;pointerEvents=0;collapsible=0;recursiveResize=0;shape=mxgraph.aws4.group;grIcon=mxgraph.aws4.group_security_group;grStroke=0;strokeColor=#7AA116;fillColor=#F2F6E8;verticalAlign=top;align=left;spacingLeft=30;fontColor=#248814;dashed=0;" parent="yOcgrLrnBPm2YluRwdYc-2" vertex="1">
          <mxGeometry x="160" y="170" width="200" height="120" as="geometry" />
        </mxCell>
        <mxCell id="G_RVJJgJg-_Y7gR2q2FS-86" value="Public subnet" style="points=[[0,0],[0.25,0],[0.5,0],[0.75,0],[1,0],[1,0.25],[1,0.5],[1,0.75],[1,1],[0.75,1],[0.5,1],[0.25,1],[0,1],[0,0.75],[0,0.5],[0,0.25]];outlineConnect=0;gradientColor=none;html=1;whiteSpace=wrap;fontSize=12;fontStyle=0;container=1;pointerEvents=0;collapsible=0;recursiveResize=0;shape=mxgraph.aws4.group;grIcon=mxgraph.aws4.group_security_group;grStroke=0;strokeColor=#7AA116;fillColor=#F2F6E8;verticalAlign=top;align=left;spacingLeft=30;fontColor=#248814;dashed=0;" parent="yOcgrLrnBPm2YluRwdYc-2" vertex="1">
          <mxGeometry x="720" y="171" width="200" height="120" as="geometry" />
        </mxCell>
        <mxCell id="G_RVJJgJg-_Y7gR2q2FS-88" value="Public subnet" style="points=[[0,0],[0.25,0],[0.5,0],[0.75,0],[1,0],[1,0.25],[1,0.5],[1,0.75],[1,1],[0.75,1],[0.5,1],[0.25,1],[0,1],[0,0.75],[0,0.5],[0,0.25]];outlineConnect=0;gradientColor=none;html=1;whiteSpace=wrap;fontSize=12;fontStyle=0;container=1;pointerEvents=0;collapsible=0;recursiveResize=0;shape=mxgraph.aws4.group;grIcon=mxgraph.aws4.group_security_group;grStroke=0;strokeColor=#7AA116;fillColor=#F2F6E8;verticalAlign=top;align=left;spacingLeft=30;fontColor=#248814;dashed=0;" parent="yOcgrLrnBPm2YluRwdYc-2" vertex="1">
          <mxGeometry x="1080" y="171" width="200" height="120" as="geometry" />
        </mxCell>
        <mxCell id="G_RVJJgJg-_Y7gR2q2FS-101" value="Public subnet" style="points=[[0,0],[0.25,0],[0.5,0],[0.75,0],[1,0],[1,0.25],[1,0.5],[1,0.75],[1,1],[0.75,1],[0.5,1],[0.25,1],[0,1],[0,0.75],[0,0.5],[0,0.25]];outlineConnect=0;gradientColor=none;html=1;whiteSpace=wrap;fontSize=12;fontStyle=0;container=1;pointerEvents=0;collapsible=0;recursiveResize=0;shape=mxgraph.aws4.group;grIcon=mxgraph.aws4.group_security_group;grStroke=0;strokeColor=#7AA116;fillColor=#F2F6E8;verticalAlign=top;align=left;spacingLeft=30;fontColor=#248814;dashed=0;" parent="yOcgrLrnBPm2YluRwdYc-2" vertex="1">
          <mxGeometry x="1080" y="640" width="200" height="120" as="geometry" />
        </mxCell>
        <mxCell id="G_RVJJgJg-_Y7gR2q2FS-102" value="&amp;nbsp;NAT Gateway&amp;nbsp;" style="sketch=0;outlineConnect=0;fontColor=#232F3E;gradientColor=none;fillColor=#8C4FFF;strokeColor=none;dashed=0;verticalLabelPosition=bottom;verticalAlign=top;align=center;html=1;fontSize=12;fontStyle=0;aspect=fixed;pointerEvents=1;shape=mxgraph.aws4.nat_gateway;labelBackgroundColor=default;labelBorderColor=#FF8000;" parent="G_RVJJgJg-_Y7gR2q2FS-101" vertex="1">
          <mxGeometry x="70" y="30" width="60" height="60" as="geometry" />
        </mxCell>
        <mxCell id="G_RVJJgJg-_Y7gR2q2FS-103" value="Public subnet" style="points=[[0,0],[0.25,0],[0.5,0],[0.75,0],[1,0],[1,0.25],[1,0.5],[1,0.75],[1,1],[0.75,1],[0.5,1],[0.25,1],[0,1],[0,0.75],[0,0.5],[0,0.25]];outlineConnect=0;gradientColor=none;html=1;whiteSpace=wrap;fontSize=12;fontStyle=0;container=1;pointerEvents=0;collapsible=0;recursiveResize=0;shape=mxgraph.aws4.group;grIcon=mxgraph.aws4.group_security_group;grStroke=0;strokeColor=#7AA116;fillColor=#F2F6E8;verticalAlign=top;align=left;spacingLeft=30;fontColor=#248814;dashed=0;" parent="yOcgrLrnBPm2YluRwdYc-2" vertex="1">
          <mxGeometry x="720" y="640" width="200" height="120" as="geometry" />
        </mxCell>
        <mxCell id="G_RVJJgJg-_Y7gR2q2FS-104" value="&amp;nbsp;NAT Gateway&amp;nbsp;" style="sketch=0;outlineConnect=0;fontColor=#232F3E;gradientColor=none;fillColor=#8C4FFF;strokeColor=none;dashed=0;verticalLabelPosition=bottom;verticalAlign=top;align=center;html=1;fontSize=12;fontStyle=0;aspect=fixed;pointerEvents=1;shape=mxgraph.aws4.nat_gateway;labelBackgroundColor=default;labelBorderColor=#FF8000;" parent="G_RVJJgJg-_Y7gR2q2FS-103" vertex="1">
          <mxGeometry x="70" y="30" width="60" height="60" as="geometry" />
        </mxCell>
        <mxCell id="G_RVJJgJg-_Y7gR2q2FS-105" value="Public subnet" style="points=[[0,0],[0.25,0],[0.5,0],[0.75,0],[1,0],[1,0.25],[1,0.5],[1,0.75],[1,1],[0.75,1],[0.5,1],[0.25,1],[0,1],[0,0.75],[0,0.5],[0,0.25]];outlineConnect=0;gradientColor=none;html=1;whiteSpace=wrap;fontSize=12;fontStyle=0;container=1;pointerEvents=0;collapsible=0;recursiveResize=0;shape=mxgraph.aws4.group;grIcon=mxgraph.aws4.group_security_group;grStroke=0;strokeColor=#7AA116;fillColor=#F2F6E8;verticalAlign=top;align=left;spacingLeft=30;fontColor=#248814;dashed=0;" parent="yOcgrLrnBPm2YluRwdYc-2" vertex="1">
          <mxGeometry x="160" y="640" width="200" height="120" as="geometry" />
        </mxCell>
        <mxCell id="G_RVJJgJg-_Y7gR2q2FS-106" value=" NAT Gateway " style="sketch=0;outlineConnect=0;fontColor=#232F3E;gradientColor=none;fillColor=#8C4FFF;strokeColor=none;dashed=0;verticalLabelPosition=bottom;verticalAlign=top;align=center;fontSize=12;fontStyle=0;aspect=fixed;pointerEvents=1;shape=mxgraph.aws4.nat_gateway;labelBackgroundColor=default;labelBorderColor=#FF8000;html=1;" parent="G_RVJJgJg-_Y7gR2q2FS-105" vertex="1">
          <mxGeometry x="70" y="30" width="60" height="60" as="geometry" />
        </mxCell>
        <mxCell id="G_RVJJgJg-_Y7gR2q2FS-84" style="edgeStyle=orthogonalEdgeStyle;rounded=0;orthogonalLoop=1;jettySize=auto;html=1;" parent="yOcgrLrnBPm2YluRwdYc-2" source="G_RVJJgJg-_Y7gR2q2FS-77" target="G_RVJJgJg-_Y7gR2q2FS-106" edge="1">
          <mxGeometry relative="1" as="geometry">
            <mxPoint x="260" y="260" as="targetPoint" />
          </mxGeometry>
        </mxCell>
        <mxCell id="G_RVJJgJg-_Y7gR2q2FS-90" style="edgeStyle=orthogonalEdgeStyle;rounded=0;orthogonalLoop=1;jettySize=auto;html=1;" parent="yOcgrLrnBPm2YluRwdYc-2" source="G_RVJJgJg-_Y7gR2q2FS-73" target="G_RVJJgJg-_Y7gR2q2FS-104" edge="1">
          <mxGeometry relative="1" as="geometry" />
        </mxCell>
        <mxCell id="G_RVJJgJg-_Y7gR2q2FS-91" style="edgeStyle=orthogonalEdgeStyle;rounded=0;orthogonalLoop=1;jettySize=auto;html=1;" parent="yOcgrLrnBPm2YluRwdYc-2" source="G_RVJJgJg-_Y7gR2q2FS-74" target="G_RVJJgJg-_Y7gR2q2FS-102" edge="1">
          <mxGeometry relative="1" as="geometry" />
        </mxCell>
        <mxCell id="G_RVJJgJg-_Y7gR2q2FS-94" value="Security group" style="fillColor=none;strokeColor=#DD3522;verticalAlign=bottom;fontStyle=0;fontColor=#DD3522;whiteSpace=wrap;html=1;" parent="yOcgrLrnBPm2YluRwdYc-2" vertex="1">
          <mxGeometry x="200" y="430" width="1070" height="111.5" as="geometry" />
        </mxCell>
        <mxCell id="G_RVJJgJg-_Y7gR2q2FS-108" style="edgeStyle=orthogonalEdgeStyle;rounded=0;orthogonalLoop=1;jettySize=auto;html=1;" parent="1" source="G_RVJJgJg-_Y7gR2q2FS-104" target="hDuMB5a9iLOk_4-JMxDB-2" edge="1">
          <mxGeometry relative="1" as="geometry">
            <Array as="points">
              <mxPoint x="1240" y="1181" />
              <mxPoint x="1900" y="1181" />
              <mxPoint x="1900" y="360" />
            </Array>
          </mxGeometry>
        </mxCell>
        <mxCell id="G_RVJJgJg-_Y7gR2q2FS-109" style="edgeStyle=orthogonalEdgeStyle;rounded=0;orthogonalLoop=1;jettySize=auto;html=1;" parent="1" source="G_RVJJgJg-_Y7gR2q2FS-102" edge="1" target="hDuMB5a9iLOk_4-JMxDB-2">
          <mxGeometry relative="1" as="geometry">
            <Array as="points">
              <mxPoint x="1600" y="1181" />
              <mxPoint x="1900" y="1181" />
              <mxPoint x="1900" y="360" />
            </Array>
            <mxPoint x="930" y="339" as="targetPoint" />
          </mxGeometry>
        </mxCell>
        <mxCell id="G_RVJJgJg-_Y7gR2q2FS-107" style="edgeStyle=orthogonalEdgeStyle;rounded=0;orthogonalLoop=1;jettySize=auto;html=1;" parent="1" source="G_RVJJgJg-_Y7gR2q2FS-106" target="hDuMB5a9iLOk_4-JMxDB-2" edge="1">
          <mxGeometry relative="1" as="geometry">
            <mxPoint x="840" y="491" as="targetPoint" />
            <Array as="points">
              <mxPoint x="680" y="1181" />
              <mxPoint x="380" y="1181" />
              <mxPoint x="380" y="360" />
            </Array>
          </mxGeometry>
        </mxCell>
        <mxCell id="G_RVJJgJg-_Y7gR2q2FS-4" style="edgeStyle=orthogonalEdgeStyle;rounded=0;orthogonalLoop=1;jettySize=auto;html=1;" parent="1" source="yOcgrLrnBPm2YluRwdYc-54" target="yOcgrLrnBPm2YluRwdYc-58" edge="1">
          <mxGeometry relative="1" as="geometry" />
        </mxCell>
        <mxCell id="G_RVJJgJg-_Y7gR2q2FS-79" style="edgeStyle=orthogonalEdgeStyle;rounded=0;orthogonalLoop=1;jettySize=auto;html=1;entryX=0.694;entryY=0;entryDx=0;entryDy=0;entryPerimeter=0;" parent="1" source="yOcgrLrnBPm2YluRwdYc-58" target="G_RVJJgJg-_Y7gR2q2FS-63" edge="1">
          <mxGeometry relative="1" as="geometry">
            <mxPoint x="900" y="740" as="targetPoint" />
          </mxGeometry>
        </mxCell>
        <mxCell id="yOcgrLrnBPm2YluRwdYc-1" value="&lt;span style=&quot;color: rgb(22, 25, 31); font-family: &amp;quot;Amazon Ember&amp;quot;, Helvetica, Arial, sans-serif; background-color: rgb(255, 255, 255);&quot;&gt;&lt;font style=&quot;font-size: 12px;&quot;&gt;Asia Pacific (Singapore)&lt;/font&gt;&lt;/span&gt;" style="points=[[0,0],[0.25,0],[0.5,0],[0.75,0],[1,0],[1,0.25],[1,0.5],[1,0.75],[1,1],[0.75,1],[0.5,1],[0.25,1],[0,1],[0,0.75],[0,0.5],[0,0.25]];outlineConnect=0;gradientColor=none;html=1;whiteSpace=wrap;fontSize=12;fontStyle=0;container=1;pointerEvents=0;collapsible=0;recursiveResize=0;shape=mxgraph.aws4.group;grIcon=mxgraph.aws4.group_region;strokeColor=#00A4A6;fillColor=none;verticalAlign=top;align=left;spacingLeft=30;fontColor=#147EBA;dashed=1;" parent="1" vertex="1">
          <mxGeometry x="460" y="441" width="1360" height="839" as="geometry" />
        </mxCell>
        <mxCell id="yOcgrLrnBPm2YluRwdYc-3" value="VPC 10.0.0.0/16" style="points=[[0,0],[0.25,0],[0.5,0],[0.75,0],[1,0],[1,0.25],[1,0.5],[1,0.75],[1,1],[0.75,1],[0.5,1],[0.25,1],[0,1],[0,0.75],[0,0.5],[0,0.25]];outlineConnect=0;gradientColor=none;html=1;whiteSpace=wrap;fontSize=12;fontStyle=0;container=1;pointerEvents=0;collapsible=0;recursiveResize=0;shape=mxgraph.aws4.group;grIcon=mxgraph.aws4.group_vpc2;strokeColor=#8C4FFF;fillColor=none;verticalAlign=top;align=left;spacingLeft=30;fontColor=#AAB7B8;dashed=0;labelBackgroundColor=none;" parent="yOcgrLrnBPm2YluRwdYc-1" vertex="1">
          <mxGeometry x="40" y="41" width="1280" height="759" as="geometry" />
        </mxCell>
        <mxCell id="yOcgrLrnBPm2YluRwdYc-58" value="&amp;nbsp;ALB&amp;nbsp;" style="sketch=0;outlineConnect=0;fontColor=#232F3E;gradientColor=none;fillColor=#8C4FFF;strokeColor=none;dashed=0;verticalLabelPosition=bottom;verticalAlign=top;align=center;html=1;fontSize=12;fontStyle=0;aspect=fixed;pointerEvents=1;shape=mxgraph.aws4.application_load_balancer;labelBackgroundColor=default;labelBorderColor=#FF8000;container=0;" parent="1" vertex="1">
          <mxGeometry x="870.0033333333332" y="592" width="60" height="60" as="geometry" />
        </mxCell>
        <mxCell id="G_RVJJgJg-_Y7gR2q2FS-51" style="edgeStyle=orthogonalEdgeStyle;rounded=0;orthogonalLoop=1;jettySize=auto;html=1;" parent="1" source="yOcgrLrnBPm2YluRwdYc-19" target="yOcgrLrnBPm2YluRwdYc-58" edge="1">
          <mxGeometry relative="1" as="geometry" />
        </mxCell>
        <mxCell id="yOcgrLrnBPm2YluRwdYc-19" value="&amp;nbsp;WAF&amp;nbsp;" style="sketch=0;points=[[0,0,0],[0.25,0,0],[0.5,0,0],[0.75,0,0],[1,0,0],[0,1,0],[0.25,1,0],[0.5,1,0],[0.75,1,0],[1,1,0],[0,0.25,0],[0,0.5,0],[0,0.75,0],[1,0.25,0],[1,0.5,0],[1,0.75,0]];outlineConnect=0;fontColor=#232F3E;fillColor=#DD344C;strokeColor=#ffffff;dashed=0;verticalLabelPosition=bottom;verticalAlign=top;align=center;html=1;fontSize=12;fontStyle=0;aspect=fixed;shape=mxgraph.aws4.resourceIcon;resIcon=mxgraph.aws4.waf;labelBackgroundColor=default;labelBorderColor=#FF8000;" parent="1" vertex="1">
          <mxGeometry x="980.0033333333331" y="592" width="60" height="60" as="geometry" />
        </mxCell>
        <mxCell id="yOcgrLrnBPm2YluRwdYc-54" value="&amp;nbsp;IGW&amp;nbsp;" style="sketch=0;outlineConnect=0;fontColor=#232F3E;gradientColor=none;fillColor=#8C4FFF;strokeColor=none;dashed=0;verticalLabelPosition=bottom;verticalAlign=top;align=center;html=1;fontSize=12;fontStyle=0;aspect=fixed;pointerEvents=1;shape=mxgraph.aws4.internet_gateway;labelBackgroundColor=default;labelBorderColor=#FF8000;" parent="1" vertex="1">
          <mxGeometry x="870" y="461" width="60" height="60" as="geometry" />
        </mxCell>
        <mxCell id="G_RVJJgJg-_Y7gR2q2FS-63" value="Auto Scaling group" style="points=[[0,0],[0.25,0],[0.5,0],[0.75,0],[1,0],[1,0.25],[1,0.5],[1,0.75],[1,1],[0.75,1],[0.5,1],[0.25,1],[0,1],[0,0.75],[0,0.5],[0,0.25]];outlineConnect=0;gradientColor=none;html=1;whiteSpace=wrap;fontSize=12;fontStyle=0;container=1;pointerEvents=0;collapsible=0;recursiveResize=0;shape=mxgraph.aws4.groupCenter;grIcon=mxgraph.aws4.group_auto_scaling_group;grStroke=1;strokeColor=#D86613;fillColor=none;verticalAlign=top;align=center;fontColor=#D86613;dashed=1;spacingTop=25;flipH=1;flipV=0;direction=east;" parent="1" vertex="1">
          <mxGeometry x="520" y="741" width="1240" height="250" as="geometry" />
        </mxCell>
        <mxCell id="G_RVJJgJg-_Y7gR2q2FS-75" value="&amp;nbsp;Application Load Balancer&amp;nbsp;&amp;nbsp;" style="fillColor=none;strokeColor=#5A6C86;dashed=1;verticalAlign=top;fontStyle=0;fontColor=#5A6C86;whiteSpace=wrap;html=1;labelBackgroundColor=default;labelBorderColor=none;" parent="1" vertex="1">
          <mxGeometry x="520" y="545" width="1240" height="154" as="geometry" />
        </mxCell>
        <mxCell id="yOcgrLrnBPm2YluRwdYc-33" style="edgeStyle=orthogonalEdgeStyle;rounded=0;orthogonalLoop=1;jettySize=auto;html=1;" parent="1" source="hDuMB5a9iLOk_4-JMxDB-1" target="hDuMB5a9iLOk_4-JMxDB-4" edge="1">
          <mxGeometry relative="1" as="geometry">
            <mxPoint x="900" y="140" as="sourcePoint" />
            <mxPoint x="900" y="320" as="targetPoint" />
          </mxGeometry>
        </mxCell>
        <mxCell id="hDuMB5a9iLOk_4-JMxDB-2" value="&amp;nbsp;Yahoo! Weather" style="sketch=0;outlineConnect=0;fontColor=#232F3E;gradientColor=none;fillColor=#232F3D;strokeColor=none;dashed=0;verticalLabelPosition=bottom;verticalAlign=top;align=center;html=1;fontSize=12;fontStyle=0;aspect=fixed;pointerEvents=1;shape=mxgraph.aws4.traditional_server;labelBackgroundColor=default;" vertex="1" parent="1">
          <mxGeometry x="1080" y="320" width="34.62" height="60" as="geometry" />
        </mxCell>
        <mxCell id="hDuMB5a9iLOk_4-JMxDB-3" value="" style="edgeStyle=orthogonalEdgeStyle;rounded=0;orthogonalLoop=1;jettySize=auto;html=1;entryX=0.5;entryY=0;entryDx=0;entryDy=0;" edge="1" parent="1" target="hDuMB5a9iLOk_4-JMxDB-1">
          <mxGeometry relative="1" as="geometry">
            <mxPoint x="900" y="140" as="sourcePoint" />
            <mxPoint x="900" y="320" as="targetPoint" />
          </mxGeometry>
        </mxCell>
        <mxCell id="hDuMB5a9iLOk_4-JMxDB-1" value="User" style="sketch=0;outlineConnect=0;fontColor=#232F3E;gradientColor=none;fillColor=#232F3D;strokeColor=none;dashed=0;verticalLabelPosition=bottom;verticalAlign=top;align=center;html=1;fontSize=12;fontStyle=0;aspect=fixed;pointerEvents=1;shape=mxgraph.aws4.user;labelBackgroundColor=default;labelBorderColor=none;" vertex="1" parent="1">
          <mxGeometry x="870" y="140" width="60" height="60" as="geometry" />
        </mxCell>
        <mxCell id="hDuMB5a9iLOk_4-JMxDB-4" value="Internet" style="sketch=0;outlineConnect=0;fontColor=#232F3E;gradientColor=none;fillColor=#232F3D;strokeColor=none;dashed=0;verticalLabelPosition=bottom;verticalAlign=top;align=center;html=1;fontSize=12;fontStyle=0;aspect=fixed;pointerEvents=1;shape=mxgraph.aws4.internet;labelBackgroundColor=default;" vertex="1" parent="1">
          <mxGeometry x="870" y="283.08" width="60" height="36.92" as="geometry" />
        </mxCell>
      </root>
    </mxGraphModel>
  </diagram>
  <diagram id="if3yROeBpSTr5C_lK28Z" name="Raw">
    <mxGraphModel dx="1655" dy="875" grid="1" gridSize="10" guides="1" tooltips="1" connect="1" arrows="1" fold="1" page="1" pageScale="1" pageWidth="850" pageHeight="1100" math="0" shadow="0">
      <root>
        <mxCell id="0" />
        <mxCell id="1" parent="0" />
        <mxCell id="goRUbXHY3vwepBhcDJvz-1" value="AWS Cloud" style="points=[[0,0],[0.25,0],[0.5,0],[0.75,0],[1,0],[1,0.25],[1,0.5],[1,0.75],[1,1],[0.75,1],[0.5,1],[0.25,1],[0,1],[0,0.75],[0,0.5],[0,0.25]];outlineConnect=0;gradientColor=none;html=1;whiteSpace=wrap;fontSize=12;fontStyle=0;container=1;pointerEvents=0;collapsible=0;recursiveResize=0;shape=mxgraph.aws4.group;grIcon=mxgraph.aws4.group_aws_cloud_alt;strokeColor=#232F3E;fillColor=none;verticalAlign=top;align=left;spacingLeft=30;fontColor=#232F3E;dashed=0;" parent="1" vertex="1">
          <mxGeometry x="140" y="620" width="1440" height="1000" as="geometry" />
        </mxCell>
        <mxCell id="goRUbXHY3vwepBhcDJvz-2" value="&amp;nbsp;Internet&amp;nbsp;" style="image;aspect=fixed;perimeter=ellipsePerimeter;html=1;align=center;shadow=0;dashed=0;spacingTop=3;image=img/lib/active_directory/internet_cloud.svg;" parent="1" vertex="1">
          <mxGeometry x="830" y="540" width="60" height="37.8" as="geometry" />
        </mxCell>
        <mxCell id="goRUbXHY3vwepBhcDJvz-3" style="edgeStyle=orthogonalEdgeStyle;rounded=0;orthogonalLoop=1;jettySize=auto;html=1;entryX=0.5;entryY=0;entryDx=0;entryDy=0;" parent="1" source="goRUbXHY3vwepBhcDJvz-4" target="goRUbXHY3vwepBhcDJvz-2" edge="1">
          <mxGeometry relative="1" as="geometry" />
        </mxCell>
        <mxCell id="goRUbXHY3vwepBhcDJvz-4" value="&amp;nbsp;User&amp;nbsp;" style="html=1;verticalLabelPosition=bottom;align=center;labelBackgroundColor=#ffffff;verticalAlign=top;strokeWidth=2;strokeColor=#0080F0;shadow=0;dashed=0;shape=mxgraph.ios7.icons.user;" parent="1" vertex="1">
          <mxGeometry x="830" y="400" width="60" height="60" as="geometry" />
        </mxCell>
        <mxCell id="goRUbXHY3vwepBhcDJvz-5" value="" style="edgeStyle=orthogonalEdgeStyle;rounded=0;orthogonalLoop=1;jettySize=auto;html=1;" parent="1" source="goRUbXHY3vwepBhcDJvz-2" target="goRUbXHY3vwepBhcDJvz-9" edge="1">
          <mxGeometry relative="1" as="geometry">
            <mxPoint x="860" y="538" as="sourcePoint" />
            <mxPoint x="860" y="850" as="targetPoint" />
          </mxGeometry>
        </mxCell>
        <mxCell id="goRUbXHY3vwepBhcDJvz-6" value="&lt;span style=&quot;color: rgb(22, 25, 31); font-family: &amp;quot;Amazon Ember&amp;quot;, Helvetica, Arial, sans-serif; background-color: rgb(255, 255, 255);&quot;&gt;&lt;font style=&quot;font-size: 12px;&quot;&gt;Asia Pacific (Singapore)&lt;/font&gt;&lt;/span&gt;" style="points=[[0,0],[0.25,0],[0.5,0],[0.75,0],[1,0],[1,0.25],[1,0.5],[1,0.75],[1,1],[0.75,1],[0.5,1],[0.25,1],[0,1],[0,0.75],[0,0.5],[0,0.25]];outlineConnect=0;gradientColor=none;html=1;whiteSpace=wrap;fontSize=12;fontStyle=0;container=1;pointerEvents=0;collapsible=0;recursiveResize=0;shape=mxgraph.aws4.group;grIcon=mxgraph.aws4.group_region;strokeColor=#00A4A6;fillColor=none;verticalAlign=top;align=left;spacingLeft=30;fontColor=#147EBA;dashed=1;" parent="1" vertex="1">
          <mxGeometry x="180" y="660" width="1360" height="920" as="geometry" />
        </mxCell>
        <mxCell id="goRUbXHY3vwepBhcDJvz-7" style="edgeStyle=orthogonalEdgeStyle;rounded=0;orthogonalLoop=1;jettySize=auto;html=1;" parent="goRUbXHY3vwepBhcDJvz-6" edge="1">
          <mxGeometry relative="1" as="geometry">
            <mxPoint x="680.0526315789473" y="74.99931678433154" as="sourcePoint" />
            <mxPoint x="680" y="151.00068180268613" as="targetPoint" />
          </mxGeometry>
        </mxCell>
        <mxCell id="goRUbXHY3vwepBhcDJvz-8" value="VPC 10.0.0.0/16" style="points=[[0,0],[0.25,0],[0.5,0],[0.75,0],[1,0],[1,0.25],[1,0.5],[1,0.75],[1,1],[0.75,1],[0.5,1],[0.25,1],[0,1],[0,0.75],[0,0.5],[0,0.25]];outlineConnect=0;gradientColor=none;html=1;whiteSpace=wrap;fontSize=12;fontStyle=0;container=1;pointerEvents=0;collapsible=0;recursiveResize=0;shape=mxgraph.aws4.group;grIcon=mxgraph.aws4.group_vpc2;strokeColor=#8C4FFF;fillColor=none;verticalAlign=top;align=left;spacingLeft=30;fontColor=#AAB7B8;dashed=0;labelBackgroundColor=none;" parent="goRUbXHY3vwepBhcDJvz-6" vertex="1">
          <mxGeometry x="40" y="41" width="1280" height="840" as="geometry" />
        </mxCell>
        <mxCell id="goRUbXHY3vwepBhcDJvz-9" value="&amp;nbsp;IGW&amp;nbsp;" style="sketch=0;outlineConnect=0;fontColor=#232F3E;gradientColor=none;fillColor=#8C4FFF;strokeColor=none;dashed=0;verticalLabelPosition=bottom;verticalAlign=top;align=center;html=1;fontSize=12;fontStyle=0;aspect=fixed;pointerEvents=1;shape=mxgraph.aws4.internet_gateway;labelBackgroundColor=default;labelBorderColor=#FF8000;" parent="goRUbXHY3vwepBhcDJvz-8" vertex="1">
          <mxGeometry x="610" y="-31" width="60" height="60" as="geometry" />
        </mxCell>
        <mxCell id="goRUbXHY3vwepBhcDJvz-10" value="Auto Scaling group" style="points=[[0,0],[0.25,0],[0.5,0],[0.75,0],[1,0],[1,0.25],[1,0.5],[1,0.75],[1,1],[0.75,1],[0.5,1],[0.25,1],[0,1],[0,0.75],[0,0.5],[0,0.25]];outlineConnect=0;gradientColor=none;html=1;whiteSpace=wrap;fontSize=12;fontStyle=0;container=1;pointerEvents=0;collapsible=0;recursiveResize=0;shape=mxgraph.aws4.groupCenter;grIcon=mxgraph.aws4.group_auto_scaling_group;grStroke=1;strokeColor=#D86613;fillColor=none;verticalAlign=top;align=center;fontColor=#D86613;dashed=1;spacingTop=25;" parent="goRUbXHY3vwepBhcDJvz-6" vertex="1">
          <mxGeometry x="80" y="121" width="1200" height="720" as="geometry" />
        </mxCell>
        <mxCell id="goRUbXHY3vwepBhcDJvz-11" value="Public subnet" style="points=[[0,0],[0.25,0],[0.5,0],[0.75,0],[1,0],[1,0.25],[1,0.5],[1,0.75],[1,1],[0.75,1],[0.5,1],[0.25,1],[0,1],[0,0.75],[0,0.5],[0,0.25]];outlineConnect=0;gradientColor=none;html=1;whiteSpace=wrap;fontSize=12;fontStyle=0;container=1;pointerEvents=0;collapsible=0;recursiveResize=0;shape=mxgraph.aws4.group;grIcon=mxgraph.aws4.group_security_group;grStroke=0;strokeColor=#7AA116;fillColor=#F2F6E8;verticalAlign=top;align=left;spacingLeft=30;fontColor=#248814;dashed=0;" parent="goRUbXHY3vwepBhcDJvz-10" vertex="1">
          <mxGeometry x="480" y="90" width="240" height="155" as="geometry" />
        </mxCell>
        <mxCell id="goRUbXHY3vwepBhcDJvz-12" value="&amp;nbsp;ALB Node&amp;nbsp;" style="sketch=0;outlineConnect=0;fontColor=#232F3E;gradientColor=none;fillColor=#8C4FFF;strokeColor=none;dashed=0;verticalLabelPosition=bottom;verticalAlign=top;align=center;html=1;fontSize=12;fontStyle=0;aspect=fixed;pointerEvents=1;shape=mxgraph.aws4.application_load_balancer;labelBackgroundColor=default;labelBorderColor=#FF8000;" parent="goRUbXHY3vwepBhcDJvz-11" vertex="1">
          <mxGeometry x="100" y="57.5" width="60" height="60" as="geometry" />
        </mxCell>
        <mxCell id="goRUbXHY3vwepBhcDJvz-13" value="Public subnet" style="points=[[0,0],[0.25,0],[0.5,0],[0.75,0],[1,0],[1,0.25],[1,0.5],[1,0.75],[1,1],[0.75,1],[0.5,1],[0.25,1],[0,1],[0,0.75],[0,0.5],[0,0.25]];outlineConnect=0;gradientColor=none;html=1;whiteSpace=wrap;fontSize=12;fontStyle=0;container=1;pointerEvents=0;collapsible=0;recursiveResize=0;shape=mxgraph.aws4.group;grIcon=mxgraph.aws4.group_security_group;grStroke=0;strokeColor=#7AA116;fillColor=#F2F6E8;verticalAlign=top;align=left;spacingLeft=30;fontColor=#248814;dashed=0;" parent="goRUbXHY3vwepBhcDJvz-10" vertex="1">
          <mxGeometry x="80" y="90" width="240" height="155" as="geometry" />
        </mxCell>
        <mxCell id="goRUbXHY3vwepBhcDJvz-14" value="&amp;nbsp;ALB Node&amp;nbsp;" style="sketch=0;outlineConnect=0;fontColor=#232F3E;gradientColor=none;fillColor=#8C4FFF;strokeColor=none;dashed=0;verticalLabelPosition=bottom;verticalAlign=top;align=center;html=1;fontSize=12;fontStyle=0;aspect=fixed;pointerEvents=1;shape=mxgraph.aws4.application_load_balancer;labelBackgroundColor=default;labelBorderColor=#FF8000;" parent="goRUbXHY3vwepBhcDJvz-13" vertex="1">
          <mxGeometry x="90" y="57.5" width="60" height="60" as="geometry" />
        </mxCell>
        <mxCell id="goRUbXHY3vwepBhcDJvz-15" value="Private subnet" style="points=[[0,0],[0.25,0],[0.5,0],[0.75,0],[1,0],[1,0.25],[1,0.5],[1,0.75],[1,1],[0.75,1],[0.5,1],[0.25,1],[0,1],[0,0.75],[0,0.5],[0,0.25]];outlineConnect=0;gradientColor=none;html=1;whiteSpace=wrap;fontSize=12;fontStyle=0;container=1;pointerEvents=0;collapsible=0;recursiveResize=0;shape=mxgraph.aws4.group;grIcon=mxgraph.aws4.group_security_group;grStroke=0;strokeColor=#00A4A6;fillColor=#E6F6F7;verticalAlign=top;align=left;spacingLeft=30;fontColor=#147EBA;dashed=0;" parent="goRUbXHY3vwepBhcDJvz-10" vertex="1">
          <mxGeometry x="880" y="280" width="240" height="160" as="geometry" />
        </mxCell>
        <mxCell id="goRUbXHY3vwepBhcDJvz-16" value="&amp;nbsp;App&amp;nbsp;" style="sketch=0;points=[[0,0,0],[0.25,0,0],[0.5,0,0],[0.75,0,0],[1,0,0],[0,1,0],[0.25,1,0],[0.5,1,0],[0.75,1,0],[1,1,0],[0,0.25,0],[0,0.5,0],[0,0.75,0],[1,0.25,0],[1,0.5,0],[1,0.75,0]];outlineConnect=0;fontColor=#232F3E;fillColor=#ED7100;strokeColor=#ffffff;dashed=0;verticalLabelPosition=bottom;verticalAlign=top;align=center;html=1;fontSize=12;fontStyle=0;aspect=fixed;shape=mxgraph.aws4.resourceIcon;resIcon=mxgraph.aws4.compute;labelBackgroundColor=default;labelBorderColor=#FF8000;" parent="goRUbXHY3vwepBhcDJvz-15" vertex="1">
          <mxGeometry x="90" y="50" width="60" height="60" as="geometry" />
        </mxCell>
        <mxCell id="goRUbXHY3vwepBhcDJvz-17" value="Private subnet" style="points=[[0,0],[0.25,0],[0.5,0],[0.75,0],[1,0],[1,0.25],[1,0.5],[1,0.75],[1,1],[0.75,1],[0.5,1],[0.25,1],[0,1],[0,0.75],[0,0.5],[0,0.25]];outlineConnect=0;gradientColor=none;html=1;whiteSpace=wrap;fontSize=12;fontStyle=0;container=1;pointerEvents=0;collapsible=0;recursiveResize=0;shape=mxgraph.aws4.group;grIcon=mxgraph.aws4.group_security_group;grStroke=0;strokeColor=#00A4A6;fillColor=#E6F6F7;verticalAlign=top;align=left;spacingLeft=30;fontColor=#147EBA;dashed=0;" parent="goRUbXHY3vwepBhcDJvz-10" vertex="1">
          <mxGeometry x="480" y="280" width="240" height="160" as="geometry" />
        </mxCell>
        <mxCell id="goRUbXHY3vwepBhcDJvz-18" value="&amp;nbsp;App&amp;nbsp;" style="sketch=0;points=[[0,0,0],[0.25,0,0],[0.5,0,0],[0.75,0,0],[1,0,0],[0,1,0],[0.25,1,0],[0.5,1,0],[0.75,1,0],[1,1,0],[0,0.25,0],[0,0.5,0],[0,0.75,0],[1,0.25,0],[1,0.5,0],[1,0.75,0]];outlineConnect=0;fontColor=#232F3E;fillColor=#ED7100;strokeColor=#ffffff;dashed=0;verticalLabelPosition=bottom;verticalAlign=top;align=center;html=1;fontSize=12;fontStyle=0;aspect=fixed;shape=mxgraph.aws4.resourceIcon;resIcon=mxgraph.aws4.compute;labelBackgroundColor=default;labelBorderColor=#FF8000;" parent="goRUbXHY3vwepBhcDJvz-17" vertex="1">
          <mxGeometry x="90" y="50" width="60" height="60" as="geometry" />
        </mxCell>
        <mxCell id="goRUbXHY3vwepBhcDJvz-19" value="Private subnet" style="points=[[0,0],[0.25,0],[0.5,0],[0.75,0],[1,0],[1,0.25],[1,0.5],[1,0.75],[1,1],[0.75,1],[0.5,1],[0.25,1],[0,1],[0,0.75],[0,0.5],[0,0.25]];outlineConnect=0;gradientColor=none;html=1;whiteSpace=wrap;fontSize=12;fontStyle=0;container=1;pointerEvents=0;collapsible=0;recursiveResize=0;shape=mxgraph.aws4.group;grIcon=mxgraph.aws4.group_security_group;grStroke=0;strokeColor=#00A4A6;fillColor=#E6F6F7;verticalAlign=top;align=left;spacingLeft=30;fontColor=#147EBA;dashed=0;" parent="goRUbXHY3vwepBhcDJvz-10" vertex="1">
          <mxGeometry x="80" y="280" width="240" height="160" as="geometry" />
        </mxCell>
        <mxCell id="goRUbXHY3vwepBhcDJvz-20" value="&amp;nbsp;App&amp;nbsp;" style="sketch=0;points=[[0,0,0],[0.25,0,0],[0.5,0,0],[0.75,0,0],[1,0,0],[0,1,0],[0.25,1,0],[0.5,1,0],[0.75,1,0],[1,1,0],[0,0.25,0],[0,0.5,0],[0,0.75,0],[1,0.25,0],[1,0.5,0],[1,0.75,0]];outlineConnect=0;fontColor=#232F3E;fillColor=#ED7100;strokeColor=#ffffff;dashed=0;verticalLabelPosition=bottom;verticalAlign=top;align=center;html=1;fontSize=12;fontStyle=0;aspect=fixed;shape=mxgraph.aws4.resourceIcon;resIcon=mxgraph.aws4.compute;labelBackgroundColor=default;labelBorderColor=#FF8000;" parent="goRUbXHY3vwepBhcDJvz-19" vertex="1">
          <mxGeometry x="90" y="50" width="60" height="60" as="geometry" />
        </mxCell>
        <mxCell id="goRUbXHY3vwepBhcDJvz-21" value="Security group" style="fillColor=none;strokeColor=#DD3522;verticalAlign=top;fontStyle=0;fontColor=#DD3522;whiteSpace=wrap;html=1;" parent="goRUbXHY3vwepBhcDJvz-10" vertex="1">
          <mxGeometry x="60" y="305" width="1080" height="120" as="geometry" />
        </mxCell>
        <mxCell id="goRUbXHY3vwepBhcDJvz-22" value="Availability Zone" style="fillColor=none;strokeColor=#147EBA;dashed=1;verticalAlign=top;fontStyle=0;fontColor=#147EBA;whiteSpace=wrap;html=1;" parent="goRUbXHY3vwepBhcDJvz-10" vertex="1">
          <mxGeometry x="40" y="50" width="320" height="635" as="geometry" />
        </mxCell>
        <mxCell id="goRUbXHY3vwepBhcDJvz-23" value="Availability Zone" style="fillColor=none;strokeColor=#147EBA;dashed=1;verticalAlign=top;fontStyle=0;fontColor=#147EBA;whiteSpace=wrap;html=1;" parent="goRUbXHY3vwepBhcDJvz-10" vertex="1">
          <mxGeometry x="440" y="50" width="320" height="635" as="geometry" />
        </mxCell>
        <mxCell id="goRUbXHY3vwepBhcDJvz-24" value="Availability Zone" style="fillColor=none;strokeColor=#147EBA;dashed=1;verticalAlign=top;fontStyle=0;fontColor=#147EBA;whiteSpace=wrap;html=1;" parent="goRUbXHY3vwepBhcDJvz-10" vertex="1">
          <mxGeometry x="840" y="50" width="320" height="635" as="geometry" />
        </mxCell>
        <mxCell id="goRUbXHY3vwepBhcDJvz-25" value="Public subnet" style="points=[[0,0],[0.25,0],[0.5,0],[0.75,0],[1,0],[1,0.25],[1,0.5],[1,0.75],[1,1],[0.75,1],[0.5,1],[0.25,1],[0,1],[0,0.75],[0,0.5],[0,0.25]];outlineConnect=0;gradientColor=none;html=1;whiteSpace=wrap;fontSize=12;fontStyle=0;container=1;pointerEvents=0;collapsible=0;recursiveResize=0;shape=mxgraph.aws4.group;grIcon=mxgraph.aws4.group_security_group;grStroke=0;strokeColor=#7AA116;fillColor=#F2F6E8;verticalAlign=top;align=left;spacingLeft=30;fontColor=#248814;dashed=0;" parent="goRUbXHY3vwepBhcDJvz-10" vertex="1">
          <mxGeometry x="880" y="90" width="240" height="155" as="geometry" />
        </mxCell>
        <mxCell id="goRUbXHY3vwepBhcDJvz-26" value="Application Load Balancer" style="fillColor=none;strokeColor=#5A6C86;dashed=1;verticalAlign=top;fontStyle=0;fontColor=#5A6C86;whiteSpace=wrap;html=1;" parent="goRUbXHY3vwepBhcDJvz-25" vertex="1">
          <mxGeometry x="-820" y="28.129999999999995" width="1080" height="118.75" as="geometry" />
        </mxCell>
        <mxCell id="goRUbXHY3vwepBhcDJvz-27" value="Private subnet" style="points=[[0,0],[0.25,0],[0.5,0],[0.75,0],[1,0],[1,0.25],[1,0.5],[1,0.75],[1,1],[0.75,1],[0.5,1],[0.25,1],[0,1],[0,0.75],[0,0.5],[0,0.25]];outlineConnect=0;gradientColor=none;html=1;whiteSpace=wrap;fontSize=12;fontStyle=0;container=1;pointerEvents=0;collapsible=0;recursiveResize=0;shape=mxgraph.aws4.group;grIcon=mxgraph.aws4.group_security_group;grStroke=0;strokeColor=#00A4A6;fillColor=#E6F6F7;verticalAlign=top;align=left;spacingLeft=30;fontColor=#147EBA;dashed=0;" parent="goRUbXHY3vwepBhcDJvz-10" vertex="1">
          <mxGeometry x="80" y="484" width="240" height="160" as="geometry" />
        </mxCell>
        <mxCell id="goRUbXHY3vwepBhcDJvz-28" value="&amp;nbsp;Amazon RDS&amp;nbsp;&lt;br&gt;(Primary)&amp;nbsp;" style="sketch=0;points=[[0,0,0],[0.25,0,0],[0.5,0,0],[0.75,0,0],[1,0,0],[0,1,0],[0.25,1,0],[0.5,1,0],[0.75,1,0],[1,1,0],[0,0.25,0],[0,0.5,0],[0,0.75,0],[1,0.25,0],[1,0.5,0],[1,0.75,0]];outlineConnect=0;fontColor=#232F3E;fillColor=#C925D1;strokeColor=#ffffff;dashed=0;verticalLabelPosition=bottom;verticalAlign=top;align=center;html=1;fontSize=12;fontStyle=0;aspect=fixed;shape=mxgraph.aws4.resourceIcon;resIcon=mxgraph.aws4.rds;labelBackgroundColor=default;labelBorderColor=#FF8000;" parent="goRUbXHY3vwepBhcDJvz-27" vertex="1">
          <mxGeometry x="90" y="50" width="60" height="60" as="geometry" />
        </mxCell>
        <mxCell id="goRUbXHY3vwepBhcDJvz-29" value="Private subnet" style="points=[[0,0],[0.25,0],[0.5,0],[0.75,0],[1,0],[1,0.25],[1,0.5],[1,0.75],[1,1],[0.75,1],[0.5,1],[0.25,1],[0,1],[0,0.75],[0,0.5],[0,0.25]];outlineConnect=0;gradientColor=none;html=1;whiteSpace=wrap;fontSize=12;fontStyle=0;container=1;pointerEvents=0;collapsible=0;recursiveResize=0;shape=mxgraph.aws4.group;grIcon=mxgraph.aws4.group_security_group;grStroke=0;strokeColor=#00A4A6;fillColor=#E6F6F7;verticalAlign=top;align=left;spacingLeft=30;fontColor=#147EBA;dashed=0;" parent="goRUbXHY3vwepBhcDJvz-10" vertex="1">
          <mxGeometry x="480" y="484" width="240" height="160" as="geometry" />
        </mxCell>
        <mxCell id="goRUbXHY3vwepBhcDJvz-30" value="&amp;nbsp;Amazon RDS&amp;nbsp;&lt;br&gt;(Standby)&amp;nbsp;" style="sketch=0;points=[[0,0,0],[0.25,0,0],[0.5,0,0],[0.75,0,0],[1,0,0],[0,1,0],[0.25,1,0],[0.5,1,0],[0.75,1,0],[1,1,0],[0,0.25,0],[0,0.5,0],[0,0.75,0],[1,0.25,0],[1,0.5,0],[1,0.75,0]];outlineConnect=0;fontColor=#232F3E;fillColor=#C925D1;strokeColor=#ffffff;dashed=0;verticalLabelPosition=bottom;verticalAlign=top;align=center;html=1;fontSize=12;fontStyle=0;aspect=fixed;shape=mxgraph.aws4.resourceIcon;resIcon=mxgraph.aws4.rds;labelBackgroundColor=default;labelBorderColor=#FF8000;" parent="goRUbXHY3vwepBhcDJvz-29" vertex="1">
          <mxGeometry x="90" y="50" width="60" height="60" as="geometry" />
        </mxCell>
        <mxCell id="goRUbXHY3vwepBhcDJvz-31" style="edgeStyle=orthogonalEdgeStyle;rounded=0;orthogonalLoop=1;jettySize=auto;html=1;entryX=0.5;entryY=0;entryDx=0;entryDy=0;entryPerimeter=0;" parent="goRUbXHY3vwepBhcDJvz-10" source="goRUbXHY3vwepBhcDJvz-20" target="goRUbXHY3vwepBhcDJvz-28" edge="1">
          <mxGeometry relative="1" as="geometry" />
        </mxCell>
        <mxCell id="goRUbXHY3vwepBhcDJvz-32" style="rounded=0;orthogonalLoop=1;jettySize=auto;html=1;entryX=0.5;entryY=0;entryDx=0;entryDy=0;entryPerimeter=0;exitX=0;exitY=0.5;exitDx=0;exitDy=0;exitPerimeter=0;" parent="goRUbXHY3vwepBhcDJvz-10" source="goRUbXHY3vwepBhcDJvz-18" target="goRUbXHY3vwepBhcDJvz-28" edge="1">
          <mxGeometry relative="1" as="geometry">
            <mxPoint x="550" y="344.0005405405404" as="sourcePoint" />
            <mxPoint x="209.99999999999977" y="531.46" as="targetPoint" />
          </mxGeometry>
        </mxCell>
        <mxCell id="goRUbXHY3vwepBhcDJvz-33" style="rounded=0;orthogonalLoop=1;jettySize=auto;html=1;entryX=0.5;entryY=0;entryDx=0;entryDy=0;entryPerimeter=0;" parent="goRUbXHY3vwepBhcDJvz-10" source="goRUbXHY3vwepBhcDJvz-16" target="goRUbXHY3vwepBhcDJvz-28" edge="1">
          <mxGeometry relative="1" as="geometry" />
        </mxCell>
        <mxCell id="goRUbXHY3vwepBhcDJvz-34" style="edgeStyle=orthogonalEdgeStyle;rounded=0;orthogonalLoop=1;jettySize=auto;html=1;" parent="goRUbXHY3vwepBhcDJvz-10" source="goRUbXHY3vwepBhcDJvz-28" target="goRUbXHY3vwepBhcDJvz-30" edge="1">
          <mxGeometry relative="1" as="geometry" />
        </mxCell>
        <mxCell id="goRUbXHY3vwepBhcDJvz-35" value="" style="edgeStyle=orthogonalEdgeStyle;rounded=0;orthogonalLoop=1;jettySize=auto;html=1;" parent="goRUbXHY3vwepBhcDJvz-10" source="goRUbXHY3vwepBhcDJvz-20" target="goRUbXHY3vwepBhcDJvz-27" edge="1">
          <mxGeometry relative="1" as="geometry" />
        </mxCell>
        <mxCell id="goRUbXHY3vwepBhcDJvz-36" value="&lt;span style=&quot;font-weight: normal;&quot;&gt;&amp;nbsp;ALB Node&lt;/span&gt;&amp;nbsp;" style="sketch=0;outlineConnect=0;fontColor=#232F3E;gradientColor=none;fillColor=#8C4FFF;strokeColor=none;dashed=0;verticalLabelPosition=bottom;verticalAlign=top;align=center;html=1;fontSize=12;fontStyle=1;aspect=fixed;pointerEvents=1;shape=mxgraph.aws4.application_load_balancer;labelBackgroundColor=default;labelBorderColor=#FF8000;" parent="goRUbXHY3vwepBhcDJvz-10" vertex="1">
          <mxGeometry x="970" y="137.5" width="60" height="60" as="geometry" />
        </mxCell>
        <mxCell id="goRUbXHY3vwepBhcDJvz-37" value="&amp;nbsp;WAF&amp;nbsp;" style="sketch=0;points=[[0,0,0],[0.25,0,0],[0.5,0,0],[0.75,0,0],[1,0,0],[0,1,0],[0.25,1,0],[0.5,1,0],[0.75,1,0],[1,1,0],[0,0.25,0],[0,0.5,0],[0,0.75,0],[1,0.25,0],[1,0.5,0],[1,0.75,0]];outlineConnect=0;fontColor=#232F3E;fillColor=#DD344C;strokeColor=#ffffff;dashed=0;verticalLabelPosition=bottom;verticalAlign=top;align=center;html=1;fontSize=12;fontStyle=0;aspect=fixed;shape=mxgraph.aws4.resourceIcon;resIcon=mxgraph.aws4.waf;labelBackgroundColor=default;labelBorderColor=#FF8000;" parent="goRUbXHY3vwepBhcDJvz-10" vertex="1">
          <mxGeometry x="770" y="139" width="60" height="60" as="geometry" />
        </mxCell>
        <mxCell id="goRUbXHY3vwepBhcDJvz-38" value="Security group" style="fillColor=none;strokeColor=#DD3522;verticalAlign=top;fontStyle=0;fontColor=#DD3522;whiteSpace=wrap;html=1;" parent="goRUbXHY3vwepBhcDJvz-10" vertex="1">
          <mxGeometry x="50" y="77.5" width="1080" height="172.5" as="geometry" />
        </mxCell>
      </root>
    </mxGraphModel>
  </diagram>
</mxfile>
